<?xml version="1.0" encoding="utf-8"?>
<svg xmlns="http://www.w3.org/2000/svg" xmlns:xlink="http://www.w3.org/1999/xlink" width="600" height="400" viewBox="0 0 2400 1600">
<defs>
  <clipPath id="clip150">
    <rect x="0" y="0" width="2400" height="1600"/>
  </clipPath>
</defs>
<path clip-path="url(#clip150)" d="
M0 1600 L2400 1600 L2400 0 L0 0  Z
  " fill="#ffffff" fill-rule="evenodd" fill-opacity="1"/>
<defs>
  <clipPath id="clip151">
    <rect x="480" y="0" width="1681" height="1600"/>
  </clipPath>
</defs>
<path clip-path="url(#clip150)" d="
M249.542 1423.18 L2352.76 1423.18 L2352.76 123.472 L249.542 123.472  Z
  " fill="#ffffff" fill-rule="evenodd" fill-opacity="1"/>
<defs>
  <clipPath id="clip152">
    <rect x="249" y="123" width="2104" height="1301"/>
  </clipPath>
</defs>
<polyline clip-path="url(#clip152)" style="stroke:#000000; stroke-linecap:butt; stroke-linejoin:round; stroke-width:2; stroke-opacity:0.1; fill:none" points="
  249.542,1423.18 249.542,123.472 
  "/>
<polyline clip-path="url(#clip152)" style="stroke:#000000; stroke-linecap:butt; stroke-linejoin:round; stroke-width:2; stroke-opacity:0.1; fill:none" points="
  600.078,1423.18 600.078,123.472 
  "/>
<polyline clip-path="url(#clip152)" style="stroke:#000000; stroke-linecap:butt; stroke-linejoin:round; stroke-width:2; stroke-opacity:0.1; fill:none" points="
  950.613,1423.18 950.613,123.472 
  "/>
<polyline clip-path="url(#clip152)" style="stroke:#000000; stroke-linecap:butt; stroke-linejoin:round; stroke-width:2; stroke-opacity:0.1; fill:none" points="
  1301.15,1423.18 1301.15,123.472 
  "/>
<polyline clip-path="url(#clip152)" style="stroke:#000000; stroke-linecap:butt; stroke-linejoin:round; stroke-width:2; stroke-opacity:0.1; fill:none" points="
  1651.68,1423.18 1651.68,123.472 
  "/>
<polyline clip-path="url(#clip152)" style="stroke:#000000; stroke-linecap:butt; stroke-linejoin:round; stroke-width:2; stroke-opacity:0.1; fill:none" points="
  2002.22,1423.18 2002.22,123.472 
  "/>
<polyline clip-path="url(#clip152)" style="stroke:#000000; stroke-linecap:butt; stroke-linejoin:round; stroke-width:2; stroke-opacity:0.1; fill:none" points="
  2352.76,1423.18 2352.76,123.472 
  "/>
<polyline clip-path="url(#clip152)" style="stroke:#000000; stroke-linecap:butt; stroke-linejoin:round; stroke-width:2; stroke-opacity:0.05; fill:none" points="
  319.649,1423.18 319.649,123.472 
  "/>
<polyline clip-path="url(#clip152)" style="stroke:#000000; stroke-linecap:butt; stroke-linejoin:round; stroke-width:2; stroke-opacity:0.05; fill:none" points="
  389.756,1423.18 389.756,123.472 
  "/>
<polyline clip-path="url(#clip152)" style="stroke:#000000; stroke-linecap:butt; stroke-linejoin:round; stroke-width:2; stroke-opacity:0.05; fill:none" points="
  459.863,1423.18 459.863,123.472 
  "/>
<polyline clip-path="url(#clip152)" style="stroke:#000000; stroke-linecap:butt; stroke-linejoin:round; stroke-width:2; stroke-opacity:0.05; fill:none" points="
  529.971,1423.18 529.971,123.472 
  "/>
<polyline clip-path="url(#clip152)" style="stroke:#000000; stroke-linecap:butt; stroke-linejoin:round; stroke-width:2; stroke-opacity:0.05; fill:none" points="
  670.185,1423.18 670.185,123.472 
  "/>
<polyline clip-path="url(#clip152)" style="stroke:#000000; stroke-linecap:butt; stroke-linejoin:round; stroke-width:2; stroke-opacity:0.05; fill:none" points="
  740.292,1423.18 740.292,123.472 
  "/>
<polyline clip-path="url(#clip152)" style="stroke:#000000; stroke-linecap:butt; stroke-linejoin:round; stroke-width:2; stroke-opacity:0.05; fill:none" points="
  810.399,1423.18 810.399,123.472 
  "/>
<polyline clip-path="url(#clip152)" style="stroke:#000000; stroke-linecap:butt; stroke-linejoin:round; stroke-width:2; stroke-opacity:0.05; fill:none" points="
  880.506,1423.18 880.506,123.472 
  "/>
<polyline clip-path="url(#clip152)" style="stroke:#000000; stroke-linecap:butt; stroke-linejoin:round; stroke-width:2; stroke-opacity:0.05; fill:none" points="
  1020.72,1423.18 1020.72,123.472 
  "/>
<polyline clip-path="url(#clip152)" style="stroke:#000000; stroke-linecap:butt; stroke-linejoin:round; stroke-width:2; stroke-opacity:0.05; fill:none" points="
  1090.83,1423.18 1090.83,123.472 
  "/>
<polyline clip-path="url(#clip152)" style="stroke:#000000; stroke-linecap:butt; stroke-linejoin:round; stroke-width:2; stroke-opacity:0.05; fill:none" points="
  1160.93,1423.18 1160.93,123.472 
  "/>
<polyline clip-path="url(#clip152)" style="stroke:#000000; stroke-linecap:butt; stroke-linejoin:round; stroke-width:2; stroke-opacity:0.05; fill:none" points="
  1231.04,1423.18 1231.04,123.472 
  "/>
<polyline clip-path="url(#clip152)" style="stroke:#000000; stroke-linecap:butt; stroke-linejoin:round; stroke-width:2; stroke-opacity:0.05; fill:none" points="
  1371.26,1423.18 1371.26,123.472 
  "/>
<polyline clip-path="url(#clip152)" style="stroke:#000000; stroke-linecap:butt; stroke-linejoin:round; stroke-width:2; stroke-opacity:0.05; fill:none" points="
  1441.36,1423.18 1441.36,123.472 
  "/>
<polyline clip-path="url(#clip152)" style="stroke:#000000; stroke-linecap:butt; stroke-linejoin:round; stroke-width:2; stroke-opacity:0.05; fill:none" points="
  1511.47,1423.18 1511.47,123.472 
  "/>
<polyline clip-path="url(#clip152)" style="stroke:#000000; stroke-linecap:butt; stroke-linejoin:round; stroke-width:2; stroke-opacity:0.05; fill:none" points="
  1581.58,1423.18 1581.58,123.472 
  "/>
<polyline clip-path="url(#clip152)" style="stroke:#000000; stroke-linecap:butt; stroke-linejoin:round; stroke-width:2; stroke-opacity:0.05; fill:none" points="
  1721.79,1423.18 1721.79,123.472 
  "/>
<polyline clip-path="url(#clip152)" style="stroke:#000000; stroke-linecap:butt; stroke-linejoin:round; stroke-width:2; stroke-opacity:0.05; fill:none" points="
  1791.9,1423.18 1791.9,123.472 
  "/>
<polyline clip-path="url(#clip152)" style="stroke:#000000; stroke-linecap:butt; stroke-linejoin:round; stroke-width:2; stroke-opacity:0.05; fill:none" points="
  1862.01,1423.18 1862.01,123.472 
  "/>
<polyline clip-path="url(#clip152)" style="stroke:#000000; stroke-linecap:butt; stroke-linejoin:round; stroke-width:2; stroke-opacity:0.05; fill:none" points="
  1932.11,1423.18 1932.11,123.472 
  "/>
<polyline clip-path="url(#clip152)" style="stroke:#000000; stroke-linecap:butt; stroke-linejoin:round; stroke-width:2; stroke-opacity:0.05; fill:none" points="
  2072.33,1423.18 2072.33,123.472 
  "/>
<polyline clip-path="url(#clip152)" style="stroke:#000000; stroke-linecap:butt; stroke-linejoin:round; stroke-width:2; stroke-opacity:0.05; fill:none" points="
  2142.43,1423.18 2142.43,123.472 
  "/>
<polyline clip-path="url(#clip152)" style="stroke:#000000; stroke-linecap:butt; stroke-linejoin:round; stroke-width:2; stroke-opacity:0.05; fill:none" points="
  2212.54,1423.18 2212.54,123.472 
  "/>
<polyline clip-path="url(#clip152)" style="stroke:#000000; stroke-linecap:butt; stroke-linejoin:round; stroke-width:2; stroke-opacity:0.05; fill:none" points="
  2282.65,1423.18 2282.65,123.472 
  "/>
<polyline clip-path="url(#clip150)" style="stroke:#000000; stroke-linecap:butt; stroke-linejoin:round; stroke-width:4; stroke-opacity:1; fill:none" points="
  249.542,1423.18 2352.76,1423.18 
  "/>
<polyline clip-path="url(#clip150)" style="stroke:#000000; stroke-linecap:butt; stroke-linejoin:round; stroke-width:4; stroke-opacity:1; fill:none" points="
  249.542,123.472 2352.76,123.472 
  "/>
<polyline clip-path="url(#clip150)" style="stroke:#000000; stroke-linecap:butt; stroke-linejoin:round; stroke-width:4; stroke-opacity:1; fill:none" points="
  249.542,1423.18 249.542,1404.28 
  "/>
<polyline clip-path="url(#clip150)" style="stroke:#000000; stroke-linecap:butt; stroke-linejoin:round; stroke-width:4; stroke-opacity:1; fill:none" points="
  600.078,1423.18 600.078,1404.28 
  "/>
<polyline clip-path="url(#clip150)" style="stroke:#000000; stroke-linecap:butt; stroke-linejoin:round; stroke-width:4; stroke-opacity:1; fill:none" points="
  950.613,1423.18 950.613,1404.28 
  "/>
<polyline clip-path="url(#clip150)" style="stroke:#000000; stroke-linecap:butt; stroke-linejoin:round; stroke-width:4; stroke-opacity:1; fill:none" points="
  1301.15,1423.18 1301.15,1404.28 
  "/>
<polyline clip-path="url(#clip150)" style="stroke:#000000; stroke-linecap:butt; stroke-linejoin:round; stroke-width:4; stroke-opacity:1; fill:none" points="
  1651.68,1423.18 1651.68,1404.28 
  "/>
<polyline clip-path="url(#clip150)" style="stroke:#000000; stroke-linecap:butt; stroke-linejoin:round; stroke-width:4; stroke-opacity:1; fill:none" points="
  2002.22,1423.18 2002.22,1404.28 
  "/>
<polyline clip-path="url(#clip150)" style="stroke:#000000; stroke-linecap:butt; stroke-linejoin:round; stroke-width:4; stroke-opacity:1; fill:none" points="
  2352.76,1423.18 2352.76,1404.28 
  "/>
<polyline clip-path="url(#clip150)" style="stroke:#000000; stroke-linecap:butt; stroke-linejoin:round; stroke-width:4; stroke-opacity:1; fill:none" points="
  319.649,1423.18 319.649,1413.73 
  "/>
<polyline clip-path="url(#clip150)" style="stroke:#000000; stroke-linecap:butt; stroke-linejoin:round; stroke-width:4; stroke-opacity:1; fill:none" points="
  389.756,1423.18 389.756,1413.73 
  "/>
<polyline clip-path="url(#clip150)" style="stroke:#000000; stroke-linecap:butt; stroke-linejoin:round; stroke-width:4; stroke-opacity:1; fill:none" points="
  459.863,1423.18 459.863,1413.73 
  "/>
<polyline clip-path="url(#clip150)" style="stroke:#000000; stroke-linecap:butt; stroke-linejoin:round; stroke-width:4; stroke-opacity:1; fill:none" points="
  529.971,1423.18 529.971,1413.73 
  "/>
<polyline clip-path="url(#clip150)" style="stroke:#000000; stroke-linecap:butt; stroke-linejoin:round; stroke-width:4; stroke-opacity:1; fill:none" points="
  670.185,1423.18 670.185,1413.73 
  "/>
<polyline clip-path="url(#clip150)" style="stroke:#000000; stroke-linecap:butt; stroke-linejoin:round; stroke-width:4; stroke-opacity:1; fill:none" points="
  740.292,1423.18 740.292,1413.73 
  "/>
<polyline clip-path="url(#clip150)" style="stroke:#000000; stroke-linecap:butt; stroke-linejoin:round; stroke-width:4; stroke-opacity:1; fill:none" points="
  810.399,1423.18 810.399,1413.73 
  "/>
<polyline clip-path="url(#clip150)" style="stroke:#000000; stroke-linecap:butt; stroke-linejoin:round; stroke-width:4; stroke-opacity:1; fill:none" points="
  880.506,1423.18 880.506,1413.73 
  "/>
<polyline clip-path="url(#clip150)" style="stroke:#000000; stroke-linecap:butt; stroke-linejoin:round; stroke-width:4; stroke-opacity:1; fill:none" points="
  1020.72,1423.18 1020.72,1413.73 
  "/>
<polyline clip-path="url(#clip150)" style="stroke:#000000; stroke-linecap:butt; stroke-linejoin:round; stroke-width:4; stroke-opacity:1; fill:none" points="
  1090.83,1423.18 1090.83,1413.73 
  "/>
<polyline clip-path="url(#clip150)" style="stroke:#000000; stroke-linecap:butt; stroke-linejoin:round; stroke-width:4; stroke-opacity:1; fill:none" points="
  1160.93,1423.18 1160.93,1413.73 
  "/>
<polyline clip-path="url(#clip150)" style="stroke:#000000; stroke-linecap:butt; stroke-linejoin:round; stroke-width:4; stroke-opacity:1; fill:none" points="
  1231.04,1423.18 1231.04,1413.73 
  "/>
<polyline clip-path="url(#clip150)" style="stroke:#000000; stroke-linecap:butt; stroke-linejoin:round; stroke-width:4; stroke-opacity:1; fill:none" points="
  1371.26,1423.18 1371.26,1413.73 
  "/>
<polyline clip-path="url(#clip150)" style="stroke:#000000; stroke-linecap:butt; stroke-linejoin:round; stroke-width:4; stroke-opacity:1; fill:none" points="
  1441.36,1423.18 1441.36,1413.73 
  "/>
<polyline clip-path="url(#clip150)" style="stroke:#000000; stroke-linecap:butt; stroke-linejoin:round; stroke-width:4; stroke-opacity:1; fill:none" points="
  1511.47,1423.18 1511.47,1413.73 
  "/>
<polyline clip-path="url(#clip150)" style="stroke:#000000; stroke-linecap:butt; stroke-linejoin:round; stroke-width:4; stroke-opacity:1; fill:none" points="
  1581.58,1423.18 1581.58,1413.73 
  "/>
<polyline clip-path="url(#clip150)" style="stroke:#000000; stroke-linecap:butt; stroke-linejoin:round; stroke-width:4; stroke-opacity:1; fill:none" points="
  1721.79,1423.18 1721.79,1413.73 
  "/>
<polyline clip-path="url(#clip150)" style="stroke:#000000; stroke-linecap:butt; stroke-linejoin:round; stroke-width:4; stroke-opacity:1; fill:none" points="
  1791.9,1423.18 1791.9,1413.73 
  "/>
<polyline clip-path="url(#clip150)" style="stroke:#000000; stroke-linecap:butt; stroke-linejoin:round; stroke-width:4; stroke-opacity:1; fill:none" points="
  1862.01,1423.18 1862.01,1413.73 
  "/>
<polyline clip-path="url(#clip150)" style="stroke:#000000; stroke-linecap:butt; stroke-linejoin:round; stroke-width:4; stroke-opacity:1; fill:none" points="
  1932.11,1423.18 1932.11,1413.73 
  "/>
<polyline clip-path="url(#clip150)" style="stroke:#000000; stroke-linecap:butt; stroke-linejoin:round; stroke-width:4; stroke-opacity:1; fill:none" points="
  2072.33,1423.18 2072.33,1413.73 
  "/>
<polyline clip-path="url(#clip150)" style="stroke:#000000; stroke-linecap:butt; stroke-linejoin:round; stroke-width:4; stroke-opacity:1; fill:none" points="
  2142.43,1423.18 2142.43,1413.73 
  "/>
<polyline clip-path="url(#clip150)" style="stroke:#000000; stroke-linecap:butt; stroke-linejoin:round; stroke-width:4; stroke-opacity:1; fill:none" points="
  2212.54,1423.18 2212.54,1413.73 
  "/>
<polyline clip-path="url(#clip150)" style="stroke:#000000; stroke-linecap:butt; stroke-linejoin:round; stroke-width:4; stroke-opacity:1; fill:none" points="
  2282.65,1423.18 2282.65,1413.73 
  "/>
<path clip-path="url(#clip150)" d="M249.542 1454.1 Q245.931 1454.1 244.102 1457.66 Q242.297 1461.2 242.297 1468.33 Q242.297 1475.44 244.102 1479.01 Q245.931 1482.55 249.542 1482.55 Q253.176 1482.55 254.982 1479.01 Q256.811 1475.44 256.811 1468.33 Q256.811 1461.2 254.982 1457.66 Q253.176 1454.1 249.542 1454.1 M249.542 1450.39 Q255.352 1450.39 258.408 1455 Q261.486 1459.58 261.486 1468.33 Q261.486 1477.06 258.408 1481.67 Q255.352 1486.25 249.542 1486.25 Q243.732 1486.25 240.653 1481.67 Q237.598 1477.06 237.598 1468.33 Q237.598 1459.58 240.653 1455 Q243.732 1450.39 249.542 1450.39 Z" fill="#000000" fill-rule="evenodd" fill-opacity="1" /><path clip-path="url(#clip150)" d="M574.765 1481.64 L582.404 1481.64 L582.404 1455.28 L574.094 1456.95 L574.094 1452.69 L582.358 1451.02 L587.034 1451.02 L587.034 1481.64 L594.673 1481.64 L594.673 1485.58 L574.765 1485.58 L574.765 1481.64 Z" fill="#000000" fill-rule="evenodd" fill-opacity="1" /><path clip-path="url(#clip150)" d="M614.117 1454.1 Q610.506 1454.1 608.677 1457.66 Q606.872 1461.2 606.872 1468.33 Q606.872 1475.44 608.677 1479.01 Q610.506 1482.55 614.117 1482.55 Q617.751 1482.55 619.557 1479.01 Q621.385 1475.44 621.385 1468.33 Q621.385 1461.2 619.557 1457.66 Q617.751 1454.1 614.117 1454.1 M614.117 1450.39 Q619.927 1450.39 622.983 1455 Q626.061 1459.58 626.061 1468.33 Q626.061 1477.06 622.983 1481.67 Q619.927 1486.25 614.117 1486.25 Q608.307 1486.25 605.228 1481.67 Q602.173 1477.06 602.173 1468.33 Q602.173 1459.58 605.228 1455 Q608.307 1450.39 614.117 1450.39 Z" fill="#000000" fill-rule="evenodd" fill-opacity="1" /><path clip-path="url(#clip150)" d="M929.387 1481.64 L945.706 1481.64 L945.706 1485.58 L923.762 1485.58 L923.762 1481.64 Q926.424 1478.89 931.007 1474.26 Q935.613 1469.61 936.794 1468.27 Q939.039 1465.74 939.919 1464.01 Q940.822 1462.25 940.822 1460.56 Q940.822 1457.8 938.877 1456.07 Q936.956 1454.33 933.854 1454.33 Q931.655 1454.33 929.201 1455.09 Q926.771 1455.86 923.993 1457.41 L923.993 1452.69 Q926.817 1451.55 929.271 1450.97 Q931.725 1450.39 933.762 1450.39 Q939.132 1450.39 942.326 1453.08 Q945.521 1455.77 945.521 1460.26 Q945.521 1462.39 944.711 1464.31 Q943.924 1466.2 941.817 1468.8 Q941.238 1469.47 938.137 1472.69 Q935.035 1475.88 929.387 1481.64 Z" fill="#000000" fill-rule="evenodd" fill-opacity="1" /><path clip-path="url(#clip150)" d="M965.521 1454.1 Q961.91 1454.1 960.081 1457.66 Q958.275 1461.2 958.275 1468.33 Q958.275 1475.44 960.081 1479.01 Q961.91 1482.55 965.521 1482.55 Q969.155 1482.55 970.96 1479.01 Q972.789 1475.44 972.789 1468.33 Q972.789 1461.2 970.96 1457.66 Q969.155 1454.1 965.521 1454.1 M965.521 1450.39 Q971.331 1450.39 974.386 1455 Q977.465 1459.58 977.465 1468.33 Q977.465 1477.06 974.386 1481.67 Q971.331 1486.25 965.521 1486.25 Q959.71 1486.25 956.632 1481.67 Q953.576 1477.06 953.576 1468.33 Q953.576 1459.58 956.632 1455 Q959.71 1450.39 965.521 1450.39 Z" fill="#000000" fill-rule="evenodd" fill-opacity="1" /><path clip-path="url(#clip150)" d="M1289.99 1466.95 Q1293.35 1467.66 1295.22 1469.93 Q1297.12 1472.2 1297.12 1475.53 Q1297.12 1480.65 1293.6 1483.45 Q1290.08 1486.25 1283.6 1486.25 Q1281.43 1486.25 1279.11 1485.81 Q1276.82 1485.39 1274.37 1484.54 L1274.37 1480.02 Q1276.31 1481.16 1278.63 1481.74 Q1280.94 1482.32 1283.46 1482.32 Q1287.86 1482.32 1290.15 1480.58 Q1292.47 1478.84 1292.47 1475.53 Q1292.47 1472.48 1290.32 1470.77 Q1288.19 1469.03 1284.37 1469.03 L1280.34 1469.03 L1280.34 1465.19 L1284.55 1465.19 Q1288 1465.19 1289.83 1463.82 Q1291.66 1462.43 1291.66 1459.84 Q1291.66 1457.18 1289.76 1455.77 Q1287.89 1454.33 1284.37 1454.33 Q1282.45 1454.33 1280.25 1454.75 Q1278.05 1455.16 1275.41 1456.04 L1275.41 1451.88 Q1278.07 1451.14 1280.39 1450.77 Q1282.72 1450.39 1284.78 1450.39 Q1290.11 1450.39 1293.21 1452.83 Q1296.31 1455.23 1296.31 1459.35 Q1296.31 1462.22 1294.67 1464.21 Q1293.02 1466.18 1289.99 1466.95 Z" fill="#000000" fill-rule="evenodd" fill-opacity="1" /><path clip-path="url(#clip150)" d="M1315.99 1454.1 Q1312.38 1454.1 1310.55 1457.66 Q1308.74 1461.2 1308.74 1468.33 Q1308.74 1475.44 1310.55 1479.01 Q1312.38 1482.55 1315.99 1482.55 Q1319.62 1482.55 1321.43 1479.01 Q1323.26 1475.44 1323.26 1468.33 Q1323.26 1461.2 1321.43 1457.66 Q1319.62 1454.1 1315.99 1454.1 M1315.99 1450.39 Q1321.8 1450.39 1324.85 1455 Q1327.93 1459.58 1327.93 1468.33 Q1327.93 1477.06 1324.85 1481.67 Q1321.8 1486.25 1315.99 1486.25 Q1310.18 1486.25 1307.1 1481.67 Q1304.04 1477.06 1304.04 1468.33 Q1304.04 1459.58 1307.1 1455 Q1310.18 1450.39 1315.99 1450.39 Z" fill="#000000" fill-rule="evenodd" fill-opacity="1" /><path clip-path="url(#clip150)" d="M1639.86 1455.09 L1628.05 1473.54 L1639.86 1473.54 L1639.86 1455.09 M1638.63 1451.02 L1644.51 1451.02 L1644.51 1473.54 L1649.44 1473.54 L1649.44 1477.43 L1644.51 1477.43 L1644.51 1485.58 L1639.86 1485.58 L1639.86 1477.43 L1624.25 1477.43 L1624.25 1472.92 L1638.63 1451.02 Z" fill="#000000" fill-rule="evenodd" fill-opacity="1" /><path clip-path="url(#clip150)" d="M1667.17 1454.1 Q1663.56 1454.1 1661.73 1457.66 Q1659.93 1461.2 1659.93 1468.33 Q1659.93 1475.44 1661.73 1479.01 Q1663.56 1482.55 1667.17 1482.55 Q1670.8 1482.55 1672.61 1479.01 Q1674.44 1475.44 1674.44 1468.33 Q1674.44 1461.2 1672.61 1457.66 Q1670.8 1454.1 1667.17 1454.1 M1667.17 1450.39 Q1672.98 1450.39 1676.04 1455 Q1679.12 1459.58 1679.12 1468.33 Q1679.12 1477.06 1676.04 1481.67 Q1672.98 1486.25 1667.17 1486.25 Q1661.36 1486.25 1658.28 1481.67 Q1655.23 1477.06 1655.23 1468.33 Q1655.23 1459.58 1658.28 1455 Q1661.36 1450.39 1667.17 1450.39 Z" fill="#000000" fill-rule="evenodd" fill-opacity="1" /><path clip-path="url(#clip150)" d="M1976.92 1451.02 L1995.28 1451.02 L1995.28 1454.96 L1981.2 1454.96 L1981.2 1463.43 Q1982.22 1463.08 1983.24 1462.92 Q1984.26 1462.73 1985.28 1462.73 Q1991.06 1462.73 1994.44 1465.9 Q1997.82 1469.08 1997.82 1474.49 Q1997.82 1480.07 1994.35 1483.17 Q1990.88 1486.25 1984.56 1486.25 Q1982.38 1486.25 1980.11 1485.88 Q1977.87 1485.51 1975.46 1484.77 L1975.46 1480.07 Q1977.54 1481.2 1979.77 1481.76 Q1981.99 1482.32 1984.47 1482.32 Q1988.47 1482.32 1990.81 1480.21 Q1993.15 1478.1 1993.15 1474.49 Q1993.15 1470.88 1990.81 1468.77 Q1988.47 1466.67 1984.47 1466.67 Q1982.59 1466.67 1980.72 1467.08 Q1978.86 1467.5 1976.92 1468.38 L1976.92 1451.02 Z" fill="#000000" fill-rule="evenodd" fill-opacity="1" /><path clip-path="url(#clip150)" d="M2017.03 1454.1 Q2013.42 1454.1 2011.6 1457.66 Q2009.79 1461.2 2009.79 1468.33 Q2009.79 1475.44 2011.6 1479.01 Q2013.42 1482.55 2017.03 1482.55 Q2020.67 1482.55 2022.47 1479.01 Q2024.3 1475.44 2024.3 1468.33 Q2024.3 1461.2 2022.47 1457.66 Q2020.67 1454.1 2017.03 1454.1 M2017.03 1450.39 Q2022.85 1450.39 2025.9 1455 Q2028.98 1459.58 2028.98 1468.33 Q2028.98 1477.06 2025.9 1481.67 Q2022.85 1486.25 2017.03 1486.25 Q2011.22 1486.25 2008.15 1481.67 Q2005.09 1477.06 2005.09 1468.33 Q2005.09 1459.58 2008.15 1455 Q2011.22 1450.39 2017.03 1450.39 Z" fill="#000000" fill-rule="evenodd" fill-opacity="1" /><path clip-path="url(#clip150)" d="M2338.16 1466.44 Q2335.01 1466.44 2333.16 1468.59 Q2331.33 1470.74 2331.33 1474.49 Q2331.33 1478.22 2333.16 1480.39 Q2335.01 1482.55 2338.16 1482.55 Q2341.31 1482.55 2343.14 1480.39 Q2344.99 1478.22 2344.99 1474.49 Q2344.99 1470.74 2343.14 1468.59 Q2341.31 1466.44 2338.16 1466.44 M2347.44 1451.78 L2347.44 1456.04 Q2345.68 1455.21 2343.88 1454.77 Q2342.1 1454.33 2340.34 1454.33 Q2335.71 1454.33 2333.25 1457.45 Q2330.82 1460.58 2330.48 1466.9 Q2331.84 1464.89 2333.9 1463.82 Q2335.96 1462.73 2338.44 1462.73 Q2343.65 1462.73 2346.66 1465.9 Q2349.69 1469.05 2349.69 1474.49 Q2349.69 1479.82 2346.54 1483.03 Q2343.39 1486.25 2338.16 1486.25 Q2332.17 1486.25 2328.99 1481.67 Q2325.82 1477.06 2325.82 1468.33 Q2325.82 1460.14 2329.71 1455.28 Q2333.6 1450.39 2340.15 1450.39 Q2341.91 1450.39 2343.69 1450.74 Q2345.5 1451.09 2347.44 1451.78 Z" fill="#000000" fill-rule="evenodd" fill-opacity="1" /><path clip-path="url(#clip150)" d="M2367.74 1454.1 Q2364.13 1454.1 2362.3 1457.66 Q2360.5 1461.2 2360.5 1468.33 Q2360.5 1475.44 2362.3 1479.01 Q2364.13 1482.55 2367.74 1482.55 Q2371.38 1482.55 2373.18 1479.01 Q2375.01 1475.44 2375.01 1468.33 Q2375.01 1461.2 2373.18 1457.66 Q2371.38 1454.1 2367.74 1454.1 M2367.74 1450.39 Q2373.55 1450.39 2376.61 1455 Q2379.69 1459.58 2379.69 1468.33 Q2379.69 1477.06 2376.61 1481.67 Q2373.55 1486.25 2367.74 1486.25 Q2361.93 1486.25 2358.86 1481.67 Q2355.8 1477.06 2355.8 1468.33 Q2355.8 1459.58 2358.86 1455 Q2361.93 1450.39 2367.74 1450.39 Z" fill="#000000" fill-rule="evenodd" fill-opacity="1" /><path clip-path="url(#clip150)" d="M888.444 1548.76 L888.444 1551.62 L861.517 1551.62 Q861.899 1557.67 865.146 1560.85 Q868.424 1564 874.249 1564 Q877.623 1564 880.774 1563.17 Q883.956 1562.35 887.076 1560.69 L887.076 1566.23 Q883.925 1567.57 880.614 1568.27 Q877.304 1568.97 873.899 1568.97 Q865.369 1568.97 860.372 1564 Q855.406 1559.04 855.406 1550.57 Q855.406 1541.82 860.117 1536.69 Q864.859 1531.54 872.88 1531.54 Q880.073 1531.54 884.243 1536.18 Q888.444 1540.8 888.444 1548.76 M882.588 1547.04 Q882.524 1542.23 879.882 1539.37 Q877.272 1536.5 872.944 1536.5 Q868.042 1536.5 865.082 1539.27 Q862.154 1542.04 861.708 1547.07 L882.588 1547.04 Z" fill="#000000" fill-rule="evenodd" fill-opacity="1" /><path clip-path="url(#clip150)" d="M927.689 1546.53 L927.689 1568.04 L921.832 1568.04 L921.832 1546.72 Q921.832 1541.66 919.859 1539.14 Q917.886 1536.63 913.939 1536.63 Q909.196 1536.63 906.459 1539.65 Q903.722 1542.68 903.722 1547.9 L903.722 1568.04 L897.834 1568.04 L897.834 1532.4 L903.722 1532.4 L903.722 1537.93 Q905.823 1534.72 908.655 1533.13 Q911.52 1531.54 915.244 1531.54 Q921.387 1531.54 924.538 1535.36 Q927.689 1539.14 927.689 1546.53 Z" fill="#000000" fill-rule="evenodd" fill-opacity="1" /><path clip-path="url(#clip150)" d="M969.862 1548.76 L969.862 1551.62 L942.935 1551.62 Q943.317 1557.67 946.563 1560.85 Q949.842 1564 955.666 1564 Q959.04 1564 962.191 1563.17 Q965.374 1562.35 968.493 1560.69 L968.493 1566.23 Q965.342 1567.57 962.032 1568.27 Q958.722 1568.97 955.316 1568.97 Q946.786 1568.97 941.789 1564 Q936.824 1559.04 936.824 1550.57 Q936.824 1541.82 941.534 1536.69 Q946.277 1531.54 954.298 1531.54 Q961.491 1531.54 965.66 1536.18 Q969.862 1540.8 969.862 1548.76 M964.005 1547.04 Q963.942 1542.23 961.3 1539.37 Q958.69 1536.5 954.361 1536.5 Q949.46 1536.5 946.5 1539.27 Q943.571 1542.04 943.126 1547.07 L964.005 1547.04 Z" fill="#000000" fill-rule="evenodd" fill-opacity="1" /><path clip-path="url(#clip150)" d="M1000.13 1537.87 Q999.144 1537.3 997.966 1537.04 Q996.82 1536.76 995.42 1536.76 Q990.455 1536.76 987.781 1540 Q985.139 1543.22 985.139 1549.27 L985.139 1568.04 L979.251 1568.04 L979.251 1532.4 L985.139 1532.4 L985.139 1537.93 Q986.985 1534.69 989.945 1533.13 Q992.906 1531.54 997.139 1531.54 Q997.743 1531.54 998.476 1531.63 Q999.208 1531.7 1000.1 1531.85 L1000.13 1537.87 Z" fill="#000000" fill-rule="evenodd" fill-opacity="1" /><path clip-path="url(#clip150)" d="M1028.59 1549.81 Q1028.59 1543.44 1025.94 1539.94 Q1023.33 1536.44 1018.59 1536.44 Q1013.88 1536.44 1011.24 1539.94 Q1008.63 1543.44 1008.63 1549.81 Q1008.63 1556.14 1011.24 1559.64 Q1013.88 1563.14 1018.59 1563.14 Q1023.33 1563.14 1025.94 1559.64 Q1028.59 1556.14 1028.59 1549.81 M1034.44 1563.62 Q1034.44 1572.72 1030.4 1577.15 Q1026.36 1581.6 1018.02 1581.6 Q1014.93 1581.6 1012.19 1581.13 Q1009.46 1580.68 1006.88 1579.72 L1006.88 1574.03 Q1009.46 1575.43 1011.97 1576.1 Q1014.49 1576.76 1017.1 1576.76 Q1022.86 1576.76 1025.72 1573.74 Q1028.59 1570.75 1028.59 1564.67 L1028.59 1561.77 Q1026.77 1564.92 1023.94 1566.48 Q1021.11 1568.04 1017.16 1568.04 Q1010.6 1568.04 1006.59 1563.05 Q1002.58 1558.05 1002.58 1549.81 Q1002.58 1541.53 1006.59 1536.53 Q1010.6 1531.54 1017.16 1531.54 Q1021.11 1531.54 1023.94 1533.1 Q1026.77 1534.66 1028.59 1537.81 L1028.59 1532.4 L1034.44 1532.4 L1034.44 1563.62 Z" fill="#000000" fill-rule="evenodd" fill-opacity="1" /><path clip-path="url(#clip150)" d="M1061.34 1571.35 Q1058.85 1577.72 1056.5 1579.66 Q1054.14 1581.6 1050.2 1581.6 L1045.52 1581.6 L1045.52 1576.7 L1048.96 1576.7 Q1051.37 1576.7 1052.71 1575.56 Q1054.05 1574.41 1055.67 1570.14 L1056.72 1567.47 L1042.3 1532.4 L1048.51 1532.4 L1059.65 1560.28 L1070.79 1532.4 L1077 1532.4 L1061.34 1571.35 Z" fill="#000000" fill-rule="evenodd" fill-opacity="1" /><path clip-path="url(#clip150)" d="M1128.53 1533.45 L1128.53 1538.98 Q1126.04 1537.71 1123.37 1537.07 Q1120.7 1536.44 1117.83 1536.44 Q1113.47 1536.44 1111.28 1537.77 Q1109.11 1539.11 1109.11 1541.79 Q1109.11 1543.82 1110.67 1545 Q1112.23 1546.15 1116.94 1547.2 L1118.95 1547.64 Q1125.18 1548.98 1127.79 1551.43 Q1130.44 1553.85 1130.44 1558.21 Q1130.44 1563.17 1126.49 1566.07 Q1122.57 1568.97 1115.7 1568.97 Q1112.84 1568.97 1109.72 1568.39 Q1106.63 1567.85 1103.19 1566.74 L1103.19 1560.69 Q1106.44 1562.38 1109.59 1563.24 Q1112.74 1564.07 1115.83 1564.07 Q1119.97 1564.07 1122.19 1562.66 Q1124.42 1561.23 1124.42 1558.65 Q1124.42 1556.27 1122.8 1554.99 Q1121.21 1553.72 1115.76 1552.54 L1113.73 1552.07 Q1108.28 1550.92 1105.87 1548.56 Q1103.45 1546.18 1103.45 1542.04 Q1103.45 1537.01 1107.01 1534.27 Q1110.58 1531.54 1117.13 1531.54 Q1120.38 1531.54 1123.24 1532.01 Q1126.11 1532.49 1128.53 1533.45 Z" fill="#000000" fill-rule="evenodd" fill-opacity="1" /><path clip-path="url(#clip150)" d="M1170.25 1548.76 L1170.25 1551.62 L1143.33 1551.62 Q1143.71 1557.67 1146.96 1560.85 Q1150.23 1564 1156.06 1564 Q1159.43 1564 1162.58 1563.17 Q1165.77 1562.35 1168.89 1560.69 L1168.89 1566.23 Q1165.73 1567.57 1162.42 1568.27 Q1159.11 1568.97 1155.71 1568.97 Q1147.18 1568.97 1142.18 1564 Q1137.22 1559.04 1137.22 1550.57 Q1137.22 1541.82 1141.93 1536.69 Q1146.67 1531.54 1154.69 1531.54 Q1161.88 1531.54 1166.05 1536.18 Q1170.25 1540.8 1170.25 1548.76 M1164.4 1547.04 Q1164.33 1542.23 1161.69 1539.37 Q1159.08 1536.5 1154.75 1536.5 Q1149.85 1536.5 1146.89 1539.27 Q1143.96 1542.04 1143.52 1547.07 L1164.4 1547.04 Z" fill="#000000" fill-rule="evenodd" fill-opacity="1" /><path clip-path="url(#clip150)" d="M1203.32 1549.81 Q1203.32 1543.44 1200.68 1539.94 Q1198.07 1536.44 1193.33 1536.44 Q1188.62 1536.44 1185.98 1539.94 Q1183.37 1543.44 1183.37 1549.81 Q1183.37 1556.14 1185.98 1559.64 Q1188.62 1563.14 1193.33 1563.14 Q1198.07 1563.14 1200.68 1559.64 Q1203.32 1556.14 1203.32 1549.81 M1209.18 1563.62 Q1209.18 1572.72 1205.14 1577.15 Q1201.1 1581.6 1192.76 1581.6 Q1189.67 1581.6 1186.93 1581.13 Q1184.2 1580.68 1181.62 1579.72 L1181.62 1574.03 Q1184.2 1575.43 1186.71 1576.1 Q1189.22 1576.76 1191.83 1576.76 Q1197.59 1576.76 1200.46 1573.74 Q1203.32 1570.75 1203.32 1564.67 L1203.32 1561.77 Q1201.51 1564.92 1198.68 1566.48 Q1195.84 1568.04 1191.9 1568.04 Q1185.34 1568.04 1181.33 1563.05 Q1177.32 1558.05 1177.32 1549.81 Q1177.32 1541.53 1181.33 1536.53 Q1185.34 1531.54 1191.9 1531.54 Q1195.84 1531.54 1198.68 1533.1 Q1201.51 1534.66 1203.32 1537.81 L1203.32 1532.4 L1209.18 1532.4 L1209.18 1563.62 Z" fill="#000000" fill-rule="evenodd" fill-opacity="1" /><path clip-path="url(#clip150)" d="M1249 1539.24 Q1251.19 1535.29 1254.25 1533.41 Q1257.31 1531.54 1261.44 1531.54 Q1267.01 1531.54 1270.04 1535.45 Q1273.06 1539.33 1273.06 1546.53 L1273.06 1568.04 L1267.17 1568.04 L1267.17 1546.72 Q1267.17 1541.59 1265.36 1539.11 Q1263.54 1536.63 1259.82 1536.63 Q1255.27 1536.63 1252.63 1539.65 Q1249.98 1542.68 1249.98 1547.9 L1249.98 1568.04 L1244.1 1568.04 L1244.1 1546.72 Q1244.1 1541.56 1242.28 1539.11 Q1240.47 1536.63 1236.68 1536.63 Q1232.19 1536.63 1229.55 1539.68 Q1226.91 1542.71 1226.91 1547.9 L1226.91 1568.04 L1221.02 1568.04 L1221.02 1532.4 L1226.91 1532.4 L1226.91 1537.93 Q1228.91 1534.66 1231.72 1533.1 Q1234.52 1531.54 1238.37 1531.54 Q1242.25 1531.54 1244.96 1533.51 Q1247.69 1535.48 1249 1539.24 Z" fill="#000000" fill-rule="evenodd" fill-opacity="1" /><path clip-path="url(#clip150)" d="M1315.23 1548.76 L1315.23 1551.62 L1288.31 1551.62 Q1288.69 1557.67 1291.93 1560.85 Q1295.21 1564 1301.04 1564 Q1304.41 1564 1307.56 1563.17 Q1310.75 1562.35 1313.86 1560.69 L1313.86 1566.23 Q1310.71 1567.57 1307.4 1568.27 Q1304.09 1568.97 1300.69 1568.97 Q1292.16 1568.97 1287.16 1564 Q1282.2 1559.04 1282.2 1550.57 Q1282.2 1541.82 1286.91 1536.69 Q1291.65 1531.54 1299.67 1531.54 Q1306.86 1531.54 1311.03 1536.18 Q1315.23 1540.8 1315.23 1548.76 M1309.38 1547.04 Q1309.31 1542.23 1306.67 1539.37 Q1304.06 1536.5 1299.73 1536.5 Q1294.83 1536.5 1291.87 1539.27 Q1288.94 1542.04 1288.5 1547.07 L1309.38 1547.04 Z" fill="#000000" fill-rule="evenodd" fill-opacity="1" /><path clip-path="url(#clip150)" d="M1354.48 1546.53 L1354.48 1568.04 L1348.62 1568.04 L1348.62 1546.72 Q1348.62 1541.66 1346.65 1539.14 Q1344.67 1536.63 1340.73 1536.63 Q1335.99 1536.63 1333.25 1539.65 Q1330.51 1542.68 1330.51 1547.9 L1330.51 1568.04 L1324.62 1568.04 L1324.62 1532.4 L1330.51 1532.4 L1330.51 1537.93 Q1332.61 1534.72 1335.44 1533.13 Q1338.31 1531.54 1342.03 1531.54 Q1348.18 1531.54 1351.33 1535.36 Q1354.48 1539.14 1354.48 1546.53 Z" fill="#000000" fill-rule="evenodd" fill-opacity="1" /><path clip-path="url(#clip150)" d="M1371.95 1522.27 L1371.95 1532.4 L1384.01 1532.4 L1384.01 1536.95 L1371.95 1536.95 L1371.95 1556.3 Q1371.95 1560.66 1373.13 1561.9 Q1374.34 1563.14 1378 1563.14 L1384.01 1563.14 L1384.01 1568.04 L1378 1568.04 Q1371.22 1568.04 1368.64 1565.53 Q1366.06 1562.98 1366.06 1556.3 L1366.06 1536.95 L1361.77 1536.95 L1361.77 1532.4 L1366.06 1532.4 L1366.06 1522.27 L1371.95 1522.27 Z" fill="#000000" fill-rule="evenodd" fill-opacity="1" /><path clip-path="url(#clip150)" d="M1414.44 1533.45 L1414.44 1538.98 Q1411.96 1537.71 1409.29 1537.07 Q1406.61 1536.44 1403.75 1536.44 Q1399.39 1536.44 1397.19 1537.77 Q1395.03 1539.11 1395.03 1541.79 Q1395.03 1543.82 1396.59 1545 Q1398.15 1546.15 1402.86 1547.2 L1404.86 1547.64 Q1411.1 1548.98 1413.71 1551.43 Q1416.35 1553.85 1416.35 1558.21 Q1416.35 1563.17 1412.41 1566.07 Q1408.49 1568.97 1401.62 1568.97 Q1398.75 1568.97 1395.63 1568.39 Q1392.54 1567.85 1389.11 1566.74 L1389.11 1560.69 Q1392.35 1562.38 1395.5 1563.24 Q1398.66 1564.07 1401.74 1564.07 Q1405.88 1564.07 1408.11 1562.66 Q1410.34 1561.23 1410.34 1558.65 Q1410.34 1556.27 1408.71 1554.99 Q1407.12 1553.72 1401.68 1552.54 L1399.64 1552.07 Q1394.2 1550.92 1391.78 1548.56 Q1389.36 1546.18 1389.36 1542.04 Q1389.36 1537.01 1392.93 1534.27 Q1396.49 1531.54 1403.05 1531.54 Q1406.29 1531.54 1409.16 1532.01 Q1412.02 1532.49 1414.44 1533.45 Z" fill="#000000" fill-rule="evenodd" fill-opacity="1" /><path clip-path="url(#clip150)" d="M1460.47 1518.58 Q1456.2 1525.9 1454.13 1533.06 Q1452.06 1540.23 1452.06 1547.58 Q1452.06 1554.93 1454.13 1562.16 Q1456.23 1569.35 1460.47 1576.64 L1455.37 1576.64 Q1450.6 1569.16 1448.21 1561.93 Q1445.86 1554.71 1445.86 1547.58 Q1445.86 1540.48 1448.21 1533.29 Q1450.57 1526.09 1455.37 1518.58 L1460.47 1518.58 Z" fill="#000000" fill-rule="evenodd" fill-opacity="1" /><path clip-path="url(#clip150)" d="M1472.08 1520.52 L1502.13 1520.52 L1502.13 1525.93 L1478.51 1525.93 L1478.51 1540 L1501.14 1540 L1501.14 1545.41 L1478.51 1545.41 L1478.51 1562.63 L1502.7 1562.63 L1502.7 1568.04 L1472.08 1568.04 L1472.08 1520.52 Z" fill="#000000" fill-rule="evenodd" fill-opacity="1" /><path clip-path="url(#clip150)" d="M1514.96 1562.63 L1525.46 1562.63 L1525.46 1526.38 L1514.03 1528.67 L1514.03 1522.82 L1525.4 1520.52 L1531.83 1520.52 L1531.83 1562.63 L1542.33 1562.63 L1542.33 1568.04 L1514.96 1568.04 L1514.96 1562.63 Z" fill="#000000" fill-rule="evenodd" fill-opacity="1" /><path clip-path="url(#clip150)" d="M1599.05 1527.18 L1599.05 1544.9 L1616.78 1544.9 L1616.78 1550.32 L1599.05 1550.32 L1599.05 1568.04 L1593.7 1568.04 L1593.7 1550.32 L1575.97 1550.32 L1575.97 1544.9 L1593.7 1544.9 L1593.7 1527.18 L1599.05 1527.18 Z" fill="#000000" fill-rule="evenodd" fill-opacity="1" /><path clip-path="url(#clip150)" d="M1650.8 1520.52 L1680.85 1520.52 L1680.85 1525.93 L1657.23 1525.93 L1657.23 1540 L1679.86 1540 L1679.86 1545.41 L1657.23 1545.41 L1657.23 1562.63 L1681.42 1562.63 L1681.42 1568.04 L1650.8 1568.04 L1650.8 1520.52 Z" fill="#000000" fill-rule="evenodd" fill-opacity="1" /><path clip-path="url(#clip150)" d="M1698.1 1562.63 L1720.54 1562.63 L1720.54 1568.04 L1690.36 1568.04 L1690.36 1562.63 Q1694.02 1558.85 1700.33 1552.48 Q1706.66 1546.08 1708.28 1544.24 Q1711.37 1540.77 1712.58 1538.38 Q1713.82 1535.96 1713.82 1533.64 Q1713.82 1529.85 1711.15 1527.46 Q1708.51 1525.08 1704.24 1525.08 Q1701.22 1525.08 1697.84 1526.13 Q1694.5 1527.18 1690.68 1529.31 L1690.68 1522.82 Q1694.57 1521.26 1697.94 1520.46 Q1701.31 1519.66 1704.11 1519.66 Q1711.5 1519.66 1715.89 1523.36 Q1720.28 1527.05 1720.28 1533.22 Q1720.28 1536.15 1719.17 1538.79 Q1718.09 1541.4 1715.19 1544.97 Q1714.39 1545.89 1710.13 1550.32 Q1705.86 1554.71 1698.1 1562.63 Z" fill="#000000" fill-rule="evenodd" fill-opacity="1" /><path clip-path="url(#clip150)" d="M1732.28 1518.58 L1737.37 1518.58 Q1742.15 1526.09 1744.5 1533.29 Q1746.89 1540.48 1746.89 1547.58 Q1746.89 1554.71 1744.5 1561.93 Q1742.15 1569.16 1737.37 1576.64 L1732.28 1576.64 Q1736.52 1569.35 1738.58 1562.16 Q1740.69 1554.93 1740.69 1547.58 Q1740.69 1540.23 1738.58 1533.06 Q1736.52 1525.9 1732.28 1518.58 Z" fill="#000000" fill-rule="evenodd" fill-opacity="1" /><polyline clip-path="url(#clip152)" style="stroke:#000000; stroke-linecap:butt; stroke-linejoin:round; stroke-width:2; stroke-opacity:0.1; fill:none" points="
  249.542,1423.18 2352.76,1423.18 
  "/>
<polyline clip-path="url(#clip152)" style="stroke:#000000; stroke-linecap:butt; stroke-linejoin:round; stroke-width:2; stroke-opacity:0.1; fill:none" points="
  249.542,1127.79 2352.76,1127.79 
  "/>
<polyline clip-path="url(#clip152)" style="stroke:#000000; stroke-linecap:butt; stroke-linejoin:round; stroke-width:2; stroke-opacity:0.1; fill:none" points="
  249.542,832.404 2352.76,832.404 
  "/>
<polyline clip-path="url(#clip152)" style="stroke:#000000; stroke-linecap:butt; stroke-linejoin:round; stroke-width:2; stroke-opacity:0.1; fill:none" points="
  249.542,537.015 2352.76,537.015 
  "/>
<polyline clip-path="url(#clip152)" style="stroke:#000000; stroke-linecap:butt; stroke-linejoin:round; stroke-width:2; stroke-opacity:0.1; fill:none" points="
  249.542,241.627 2352.76,241.627 
  "/>
<polyline clip-path="url(#clip152)" style="stroke:#000000; stroke-linecap:butt; stroke-linejoin:round; stroke-width:2; stroke-opacity:0.05; fill:none" points="
  249.542,1364.1 2352.76,1364.1 
  "/>
<polyline clip-path="url(#clip152)" style="stroke:#000000; stroke-linecap:butt; stroke-linejoin:round; stroke-width:2; stroke-opacity:0.05; fill:none" points="
  249.542,1305.02 2352.76,1305.02 
  "/>
<polyline clip-path="url(#clip152)" style="stroke:#000000; stroke-linecap:butt; stroke-linejoin:round; stroke-width:2; stroke-opacity:0.05; fill:none" points="
  249.542,1245.95 2352.76,1245.95 
  "/>
<polyline clip-path="url(#clip152)" style="stroke:#000000; stroke-linecap:butt; stroke-linejoin:round; stroke-width:2; stroke-opacity:0.05; fill:none" points="
  249.542,1186.87 2352.76,1186.87 
  "/>
<polyline clip-path="url(#clip152)" style="stroke:#000000; stroke-linecap:butt; stroke-linejoin:round; stroke-width:2; stroke-opacity:0.05; fill:none" points="
  249.542,1068.71 2352.76,1068.71 
  "/>
<polyline clip-path="url(#clip152)" style="stroke:#000000; stroke-linecap:butt; stroke-linejoin:round; stroke-width:2; stroke-opacity:0.05; fill:none" points="
  249.542,1009.64 2352.76,1009.64 
  "/>
<polyline clip-path="url(#clip152)" style="stroke:#000000; stroke-linecap:butt; stroke-linejoin:round; stroke-width:2; stroke-opacity:0.05; fill:none" points="
  249.542,950.559 2352.76,950.559 
  "/>
<polyline clip-path="url(#clip152)" style="stroke:#000000; stroke-linecap:butt; stroke-linejoin:round; stroke-width:2; stroke-opacity:0.05; fill:none" points="
  249.542,891.481 2352.76,891.481 
  "/>
<polyline clip-path="url(#clip152)" style="stroke:#000000; stroke-linecap:butt; stroke-linejoin:round; stroke-width:2; stroke-opacity:0.05; fill:none" points="
  249.542,773.326 2352.76,773.326 
  "/>
<polyline clip-path="url(#clip152)" style="stroke:#000000; stroke-linecap:butt; stroke-linejoin:round; stroke-width:2; stroke-opacity:0.05; fill:none" points="
  249.542,714.248 2352.76,714.248 
  "/>
<polyline clip-path="url(#clip152)" style="stroke:#000000; stroke-linecap:butt; stroke-linejoin:round; stroke-width:2; stroke-opacity:0.05; fill:none" points="
  249.542,655.171 2352.76,655.171 
  "/>
<polyline clip-path="url(#clip152)" style="stroke:#000000; stroke-linecap:butt; stroke-linejoin:round; stroke-width:2; stroke-opacity:0.05; fill:none" points="
  249.542,596.093 2352.76,596.093 
  "/>
<polyline clip-path="url(#clip152)" style="stroke:#000000; stroke-linecap:butt; stroke-linejoin:round; stroke-width:2; stroke-opacity:0.05; fill:none" points="
  249.542,477.938 2352.76,477.938 
  "/>
<polyline clip-path="url(#clip152)" style="stroke:#000000; stroke-linecap:butt; stroke-linejoin:round; stroke-width:2; stroke-opacity:0.05; fill:none" points="
  249.542,418.86 2352.76,418.86 
  "/>
<polyline clip-path="url(#clip152)" style="stroke:#000000; stroke-linecap:butt; stroke-linejoin:round; stroke-width:2; stroke-opacity:0.05; fill:none" points="
  249.542,359.783 2352.76,359.783 
  "/>
<polyline clip-path="url(#clip152)" style="stroke:#000000; stroke-linecap:butt; stroke-linejoin:round; stroke-width:2; stroke-opacity:0.05; fill:none" points="
  249.542,300.705 2352.76,300.705 
  "/>
<polyline clip-path="url(#clip152)" style="stroke:#000000; stroke-linecap:butt; stroke-linejoin:round; stroke-width:2; stroke-opacity:0.05; fill:none" points="
  249.542,182.55 2352.76,182.55 
  "/>
<polyline clip-path="url(#clip152)" style="stroke:#000000; stroke-linecap:butt; stroke-linejoin:round; stroke-width:2; stroke-opacity:0.05; fill:none" points="
  249.542,123.472 2352.76,123.472 
  "/>
<polyline clip-path="url(#clip150)" style="stroke:#000000; stroke-linecap:butt; stroke-linejoin:round; stroke-width:4; stroke-opacity:1; fill:none" points="
  249.542,1423.18 249.542,123.472 
  "/>
<polyline clip-path="url(#clip150)" style="stroke:#000000; stroke-linecap:butt; stroke-linejoin:round; stroke-width:4; stroke-opacity:1; fill:none" points="
  2352.76,1423.18 2352.76,123.472 
  "/>
<polyline clip-path="url(#clip150)" style="stroke:#000000; stroke-linecap:butt; stroke-linejoin:round; stroke-width:4; stroke-opacity:1; fill:none" points="
  249.542,1423.18 268.44,1423.18 
  "/>
<polyline clip-path="url(#clip150)" style="stroke:#000000; stroke-linecap:butt; stroke-linejoin:round; stroke-width:4; stroke-opacity:1; fill:none" points="
  249.542,1127.79 268.44,1127.79 
  "/>
<polyline clip-path="url(#clip150)" style="stroke:#000000; stroke-linecap:butt; stroke-linejoin:round; stroke-width:4; stroke-opacity:1; fill:none" points="
  249.542,832.404 268.44,832.404 
  "/>
<polyline clip-path="url(#clip150)" style="stroke:#000000; stroke-linecap:butt; stroke-linejoin:round; stroke-width:4; stroke-opacity:1; fill:none" points="
  249.542,537.015 268.44,537.015 
  "/>
<polyline clip-path="url(#clip150)" style="stroke:#000000; stroke-linecap:butt; stroke-linejoin:round; stroke-width:4; stroke-opacity:1; fill:none" points="
  249.542,241.627 268.44,241.627 
  "/>
<polyline clip-path="url(#clip150)" style="stroke:#000000; stroke-linecap:butt; stroke-linejoin:round; stroke-width:4; stroke-opacity:1; fill:none" points="
  249.542,1364.1 258.991,1364.1 
  "/>
<polyline clip-path="url(#clip150)" style="stroke:#000000; stroke-linecap:butt; stroke-linejoin:round; stroke-width:4; stroke-opacity:1; fill:none" points="
  249.542,1305.02 258.991,1305.02 
  "/>
<polyline clip-path="url(#clip150)" style="stroke:#000000; stroke-linecap:butt; stroke-linejoin:round; stroke-width:4; stroke-opacity:1; fill:none" points="
  249.542,1245.95 258.991,1245.95 
  "/>
<polyline clip-path="url(#clip150)" style="stroke:#000000; stroke-linecap:butt; stroke-linejoin:round; stroke-width:4; stroke-opacity:1; fill:none" points="
  249.542,1186.87 258.991,1186.87 
  "/>
<polyline clip-path="url(#clip150)" style="stroke:#000000; stroke-linecap:butt; stroke-linejoin:round; stroke-width:4; stroke-opacity:1; fill:none" points="
  249.542,1068.71 258.991,1068.71 
  "/>
<polyline clip-path="url(#clip150)" style="stroke:#000000; stroke-linecap:butt; stroke-linejoin:round; stroke-width:4; stroke-opacity:1; fill:none" points="
  249.542,1009.64 258.991,1009.64 
  "/>
<polyline clip-path="url(#clip150)" style="stroke:#000000; stroke-linecap:butt; stroke-linejoin:round; stroke-width:4; stroke-opacity:1; fill:none" points="
  249.542,950.559 258.991,950.559 
  "/>
<polyline clip-path="url(#clip150)" style="stroke:#000000; stroke-linecap:butt; stroke-linejoin:round; stroke-width:4; stroke-opacity:1; fill:none" points="
  249.542,891.481 258.991,891.481 
  "/>
<polyline clip-path="url(#clip150)" style="stroke:#000000; stroke-linecap:butt; stroke-linejoin:round; stroke-width:4; stroke-opacity:1; fill:none" points="
  249.542,773.326 258.991,773.326 
  "/>
<polyline clip-path="url(#clip150)" style="stroke:#000000; stroke-linecap:butt; stroke-linejoin:round; stroke-width:4; stroke-opacity:1; fill:none" points="
  249.542,714.248 258.991,714.248 
  "/>
<polyline clip-path="url(#clip150)" style="stroke:#000000; stroke-linecap:butt; stroke-linejoin:round; stroke-width:4; stroke-opacity:1; fill:none" points="
  249.542,655.171 258.991,655.171 
  "/>
<polyline clip-path="url(#clip150)" style="stroke:#000000; stroke-linecap:butt; stroke-linejoin:round; stroke-width:4; stroke-opacity:1; fill:none" points="
  249.542,596.093 258.991,596.093 
  "/>
<polyline clip-path="url(#clip150)" style="stroke:#000000; stroke-linecap:butt; stroke-linejoin:round; stroke-width:4; stroke-opacity:1; fill:none" points="
  249.542,477.938 258.991,477.938 
  "/>
<polyline clip-path="url(#clip150)" style="stroke:#000000; stroke-linecap:butt; stroke-linejoin:round; stroke-width:4; stroke-opacity:1; fill:none" points="
  249.542,418.86 258.991,418.86 
  "/>
<polyline clip-path="url(#clip150)" style="stroke:#000000; stroke-linecap:butt; stroke-linejoin:round; stroke-width:4; stroke-opacity:1; fill:none" points="
  249.542,359.783 258.991,359.783 
  "/>
<polyline clip-path="url(#clip150)" style="stroke:#000000; stroke-linecap:butt; stroke-linejoin:round; stroke-width:4; stroke-opacity:1; fill:none" points="
  249.542,300.705 258.991,300.705 
  "/>
<polyline clip-path="url(#clip150)" style="stroke:#000000; stroke-linecap:butt; stroke-linejoin:round; stroke-width:4; stroke-opacity:1; fill:none" points="
  249.542,182.55 258.991,182.55 
  "/>
<polyline clip-path="url(#clip150)" style="stroke:#000000; stroke-linecap:butt; stroke-linejoin:round; stroke-width:4; stroke-opacity:1; fill:none" points="
  249.542,123.472 258.991,123.472 
  "/>
<path clip-path="url(#clip150)" d="M126.205 1408.98 Q122.593 1408.98 120.765 1412.54 Q118.959 1416.08 118.959 1423.21 Q118.959 1430.32 120.765 1433.89 Q122.593 1437.43 126.205 1437.43 Q129.839 1437.43 131.644 1433.89 Q133.473 1430.32 133.473 1423.21 Q133.473 1416.08 131.644 1412.54 Q129.839 1408.98 126.205 1408.98 M126.205 1405.27 Q132.015 1405.27 135.07 1409.88 Q138.149 1414.46 138.149 1423.21 Q138.149 1431.94 135.07 1436.55 Q132.015 1441.13 126.205 1441.13 Q120.394 1441.13 117.316 1436.55 Q114.26 1431.94 114.26 1423.21 Q114.26 1414.46 117.316 1409.88 Q120.394 1405.27 126.205 1405.27 Z" fill="#000000" fill-rule="evenodd" fill-opacity="1" /><path clip-path="url(#clip150)" d="M146.366 1434.58 L151.251 1434.58 L151.251 1440.46 L146.366 1440.46 L146.366 1434.58 Z" fill="#000000" fill-rule="evenodd" fill-opacity="1" /><path clip-path="url(#clip150)" d="M171.436 1408.98 Q167.825 1408.98 165.996 1412.54 Q164.19 1416.08 164.19 1423.21 Q164.19 1430.32 165.996 1433.89 Q167.825 1437.43 171.436 1437.43 Q175.07 1437.43 176.876 1433.89 Q178.704 1430.32 178.704 1423.21 Q178.704 1416.08 176.876 1412.54 Q175.07 1408.98 171.436 1408.98 M171.436 1405.27 Q177.246 1405.27 180.301 1409.88 Q183.38 1414.46 183.38 1423.21 Q183.38 1431.94 180.301 1436.55 Q177.246 1441.13 171.436 1441.13 Q165.626 1441.13 162.547 1436.55 Q159.491 1431.94 159.491 1423.21 Q159.491 1414.46 162.547 1409.88 Q165.626 1405.27 171.436 1405.27 Z" fill="#000000" fill-rule="evenodd" fill-opacity="1" /><path clip-path="url(#clip150)" d="M201.598 1408.98 Q197.987 1408.98 196.158 1412.54 Q194.352 1416.08 194.352 1423.21 Q194.352 1430.32 196.158 1433.89 Q197.987 1437.43 201.598 1437.43 Q205.232 1437.43 207.037 1433.89 Q208.866 1430.32 208.866 1423.21 Q208.866 1416.08 207.037 1412.54 Q205.232 1408.98 201.598 1408.98 M201.598 1405.27 Q207.408 1405.27 210.463 1409.88 Q213.542 1414.46 213.542 1423.21 Q213.542 1431.94 210.463 1436.55 Q207.408 1441.13 201.598 1441.13 Q195.787 1441.13 192.709 1436.55 Q189.653 1431.94 189.653 1423.21 Q189.653 1414.46 192.709 1409.88 Q195.787 1405.27 201.598 1405.27 Z" fill="#000000" fill-rule="evenodd" fill-opacity="1" /><path clip-path="url(#clip150)" d="M127.2 1113.59 Q123.589 1113.59 121.76 1117.16 Q119.955 1120.7 119.955 1127.83 Q119.955 1134.93 121.76 1138.5 Q123.589 1142.04 127.2 1142.04 Q130.834 1142.04 132.64 1138.5 Q134.468 1134.93 134.468 1127.83 Q134.468 1120.7 132.64 1117.16 Q130.834 1113.59 127.2 1113.59 M127.2 1109.89 Q133.01 1109.89 136.066 1114.49 Q139.144 1119.08 139.144 1127.83 Q139.144 1136.55 136.066 1141.16 Q133.01 1145.74 127.2 1145.74 Q121.39 1145.74 118.311 1141.16 Q115.256 1136.55 115.256 1127.83 Q115.256 1119.08 118.311 1114.49 Q121.39 1109.89 127.2 1109.89 Z" fill="#000000" fill-rule="evenodd" fill-opacity="1" /><path clip-path="url(#clip150)" d="M147.362 1139.19 L152.246 1139.19 L152.246 1145.07 L147.362 1145.07 L147.362 1139.19 Z" fill="#000000" fill-rule="evenodd" fill-opacity="1" /><path clip-path="url(#clip150)" d="M166.459 1141.14 L182.778 1141.14 L182.778 1145.07 L160.834 1145.07 L160.834 1141.14 Q163.496 1138.38 168.079 1133.75 Q172.686 1129.1 173.866 1127.76 Q176.112 1125.23 176.991 1123.5 Q177.894 1121.74 177.894 1120.05 Q177.894 1117.29 175.95 1115.56 Q174.028 1113.82 170.927 1113.82 Q168.727 1113.82 166.274 1114.59 Q163.843 1115.35 161.065 1116.9 L161.065 1112.18 Q163.89 1111.04 166.343 1110.47 Q168.797 1109.89 170.834 1109.89 Q176.204 1109.89 179.399 1112.57 Q182.593 1115.26 182.593 1119.75 Q182.593 1121.88 181.783 1123.8 Q180.996 1125.7 178.889 1128.29 Q178.311 1128.96 175.209 1132.18 Q172.107 1135.37 166.459 1141.14 Z" fill="#000000" fill-rule="evenodd" fill-opacity="1" /><path clip-path="url(#clip150)" d="M192.639 1110.51 L210.996 1110.51 L210.996 1114.45 L196.922 1114.45 L196.922 1122.92 Q197.94 1122.57 198.959 1122.41 Q199.977 1122.22 200.996 1122.22 Q206.783 1122.22 210.162 1125.4 Q213.542 1128.57 213.542 1133.98 Q213.542 1139.56 210.07 1142.66 Q206.598 1145.74 200.278 1145.74 Q198.102 1145.74 195.834 1145.37 Q193.588 1145 191.181 1144.26 L191.181 1139.56 Q193.264 1140.7 195.487 1141.25 Q197.709 1141.81 200.186 1141.81 Q204.19 1141.81 206.528 1139.7 Q208.866 1137.59 208.866 1133.98 Q208.866 1130.37 206.528 1128.27 Q204.19 1126.16 200.186 1126.16 Q198.311 1126.16 196.436 1126.58 Q194.584 1126.99 192.639 1127.87 L192.639 1110.51 Z" fill="#000000" fill-rule="evenodd" fill-opacity="1" /><path clip-path="url(#clip150)" d="M126.205 818.202 Q122.593 818.202 120.765 821.767 Q118.959 825.309 118.959 832.438 Q118.959 839.545 120.765 843.11 Q122.593 846.651 126.205 846.651 Q129.839 846.651 131.644 843.11 Q133.473 839.545 133.473 832.438 Q133.473 825.309 131.644 821.767 Q129.839 818.202 126.205 818.202 M126.205 814.499 Q132.015 814.499 135.07 819.105 Q138.149 823.688 138.149 832.438 Q138.149 841.165 135.07 845.772 Q132.015 850.355 126.205 850.355 Q120.394 850.355 117.316 845.772 Q114.26 841.165 114.26 832.438 Q114.26 823.688 117.316 819.105 Q120.394 814.499 126.205 814.499 Z" fill="#000000" fill-rule="evenodd" fill-opacity="1" /><path clip-path="url(#clip150)" d="M146.366 843.804 L151.251 843.804 L151.251 849.684 L146.366 849.684 L146.366 843.804 Z" fill="#000000" fill-rule="evenodd" fill-opacity="1" /><path clip-path="url(#clip150)" d="M161.482 815.124 L179.839 815.124 L179.839 819.059 L165.765 819.059 L165.765 827.531 Q166.783 827.184 167.802 827.022 Q168.82 826.837 169.839 826.837 Q175.626 826.837 179.005 830.008 Q182.385 833.179 182.385 838.596 Q182.385 844.174 178.913 847.276 Q175.44 850.355 169.121 850.355 Q166.945 850.355 164.677 849.985 Q162.431 849.614 160.024 848.873 L160.024 844.174 Q162.107 845.309 164.329 845.864 Q166.552 846.42 169.028 846.42 Q173.033 846.42 175.371 844.313 Q177.709 842.207 177.709 838.596 Q177.709 834.985 175.371 832.878 Q173.033 830.772 169.028 830.772 Q167.153 830.772 165.278 831.188 Q163.427 831.605 161.482 832.485 L161.482 815.124 Z" fill="#000000" fill-rule="evenodd" fill-opacity="1" /><path clip-path="url(#clip150)" d="M201.598 818.202 Q197.987 818.202 196.158 821.767 Q194.352 825.309 194.352 832.438 Q194.352 839.545 196.158 843.11 Q197.987 846.651 201.598 846.651 Q205.232 846.651 207.037 843.11 Q208.866 839.545 208.866 832.438 Q208.866 825.309 207.037 821.767 Q205.232 818.202 201.598 818.202 M201.598 814.499 Q207.408 814.499 210.463 819.105 Q213.542 823.688 213.542 832.438 Q213.542 841.165 210.463 845.772 Q207.408 850.355 201.598 850.355 Q195.787 850.355 192.709 845.772 Q189.653 841.165 189.653 832.438 Q189.653 823.688 192.709 819.105 Q195.787 814.499 201.598 814.499 Z" fill="#000000" fill-rule="evenodd" fill-opacity="1" /><path clip-path="url(#clip150)" d="M127.2 522.814 Q123.589 522.814 121.76 526.379 Q119.955 529.921 119.955 537.05 Q119.955 544.157 121.76 547.721 Q123.589 551.263 127.2 551.263 Q130.834 551.263 132.64 547.721 Q134.468 544.157 134.468 537.05 Q134.468 529.921 132.64 526.379 Q130.834 522.814 127.2 522.814 M127.2 519.11 Q133.01 519.11 136.066 523.717 Q139.144 528.3 139.144 537.05 Q139.144 545.777 136.066 550.383 Q133.01 554.967 127.2 554.967 Q121.39 554.967 118.311 550.383 Q115.256 545.777 115.256 537.05 Q115.256 528.3 118.311 523.717 Q121.39 519.11 127.2 519.11 Z" fill="#000000" fill-rule="evenodd" fill-opacity="1" /><path clip-path="url(#clip150)" d="M147.362 548.416 L152.246 548.416 L152.246 554.295 L147.362 554.295 L147.362 548.416 Z" fill="#000000" fill-rule="evenodd" fill-opacity="1" /><path clip-path="url(#clip150)" d="M161.251 519.735 L183.473 519.735 L183.473 521.726 L170.927 554.295 L166.042 554.295 L177.848 523.671 L161.251 523.671 L161.251 519.735 Z" fill="#000000" fill-rule="evenodd" fill-opacity="1" /><path clip-path="url(#clip150)" d="M192.639 519.735 L210.996 519.735 L210.996 523.671 L196.922 523.671 L196.922 532.143 Q197.94 531.796 198.959 531.634 Q199.977 531.448 200.996 531.448 Q206.783 531.448 210.162 534.62 Q213.542 537.791 213.542 543.208 Q213.542 548.786 210.07 551.888 Q206.598 554.967 200.278 554.967 Q198.102 554.967 195.834 554.596 Q193.588 554.226 191.181 553.485 L191.181 548.786 Q193.264 549.921 195.487 550.476 Q197.709 551.032 200.186 551.032 Q204.19 551.032 206.528 548.925 Q208.866 546.819 208.866 543.208 Q208.866 539.596 206.528 537.49 Q204.19 535.384 200.186 535.384 Q198.311 535.384 196.436 535.8 Q194.584 536.217 192.639 537.097 L192.639 519.735 Z" fill="#000000" fill-rule="evenodd" fill-opacity="1" /><path clip-path="url(#clip150)" d="M117.015 254.972 L124.654 254.972 L124.654 228.607 L116.343 230.273 L116.343 226.014 L124.607 224.347 L129.283 224.347 L129.283 254.972 L136.922 254.972 L136.922 258.907 L117.015 258.907 L117.015 254.972 Z" fill="#000000" fill-rule="evenodd" fill-opacity="1" /><path clip-path="url(#clip150)" d="M146.366 253.028 L151.251 253.028 L151.251 258.907 L146.366 258.907 L146.366 253.028 Z" fill="#000000" fill-rule="evenodd" fill-opacity="1" /><path clip-path="url(#clip150)" d="M171.436 227.426 Q167.825 227.426 165.996 230.991 Q164.19 234.533 164.19 241.662 Q164.19 248.769 165.996 252.333 Q167.825 255.875 171.436 255.875 Q175.07 255.875 176.876 252.333 Q178.704 248.769 178.704 241.662 Q178.704 234.533 176.876 230.991 Q175.07 227.426 171.436 227.426 M171.436 223.722 Q177.246 223.722 180.301 228.329 Q183.38 232.912 183.38 241.662 Q183.38 250.389 180.301 254.995 Q177.246 259.579 171.436 259.579 Q165.626 259.579 162.547 254.995 Q159.491 250.389 159.491 241.662 Q159.491 232.912 162.547 228.329 Q165.626 223.722 171.436 223.722 Z" fill="#000000" fill-rule="evenodd" fill-opacity="1" /><path clip-path="url(#clip150)" d="M201.598 227.426 Q197.987 227.426 196.158 230.991 Q194.352 234.533 194.352 241.662 Q194.352 248.769 196.158 252.333 Q197.987 255.875 201.598 255.875 Q205.232 255.875 207.037 252.333 Q208.866 248.769 208.866 241.662 Q208.866 234.533 207.037 230.991 Q205.232 227.426 201.598 227.426 M201.598 223.722 Q207.408 223.722 210.463 228.329 Q213.542 232.912 213.542 241.662 Q213.542 250.389 210.463 254.995 Q207.408 259.579 201.598 259.579 Q195.787 259.579 192.709 254.995 Q189.653 250.389 189.653 241.662 Q189.653 232.912 192.709 228.329 Q195.787 223.722 201.598 223.722 Z" fill="#000000" fill-rule="evenodd" fill-opacity="1" /><path clip-path="url(#clip150)" d="M20.1444 797.882 L26.9239 797.882 Q23.9002 801.128 22.4043 804.82 Q20.9083 808.481 20.9083 812.618 Q20.9083 820.766 25.9054 825.095 Q30.8707 829.424 40.2919 829.424 Q49.6813 829.424 54.6784 825.095 Q59.6436 820.766 59.6436 812.618 Q59.6436 808.481 58.1477 804.82 Q56.6518 801.128 53.6281 797.882 L60.3439 797.882 Q62.6355 801.256 63.7814 805.043 Q64.9272 808.799 64.9272 813 Q64.9272 823.79 58.3387 829.997 Q51.7183 836.203 40.2919 836.203 Q28.8336 836.203 22.2451 829.997 Q15.6248 823.79 15.6248 813 Q15.6248 808.735 16.7706 804.979 Q17.8846 801.192 20.1444 797.882 Z" fill="#000000" fill-rule="evenodd" fill-opacity="1" /><path clip-path="url(#clip150)" d="M21.7677 781.522 L58.7206 781.522 L58.7206 773.756 Q58.7206 763.921 54.2646 759.369 Q49.8086 754.786 40.1964 754.786 Q30.6479 754.786 26.2237 759.369 Q21.7677 763.921 21.7677 773.756 L21.7677 781.522 M16.4842 787.951 L16.4842 774.742 Q16.4842 760.929 22.2451 754.468 Q27.9743 748.006 40.1964 748.006 Q52.4822 748.006 58.2432 754.499 Q64.0042 760.992 64.0042 774.742 L64.0042 787.951 L16.4842 787.951 Z" fill="#000000" fill-rule="evenodd" fill-opacity="1" /><path clip-path="url(#clip150)" d="M16.4842 737.758 L16.4842 710.449 L21.895 710.449 L21.895 731.328 L35.8996 731.328 L35.8996 712.486 L41.3104 712.486 L41.3104 731.328 L64.0042 731.328 L64.0042 737.758 L16.4842 737.758 Z" fill="#000000" fill-rule="evenodd" fill-opacity="1" /><path clip-path="url(#clip150)" d="M347.202 16.7545 L347.202 25.383 Q343.07 21.5346 338.371 19.6307 Q333.712 17.7268 328.446 17.7268 Q318.076 17.7268 312.566 24.0867 Q307.057 30.4061 307.057 42.3968 Q307.057 54.3469 312.566 60.7069 Q318.076 67.0263 328.446 67.0263 Q333.712 67.0263 338.371 65.1223 Q343.07 63.2184 347.202 59.3701 L347.202 67.9175 Q342.908 70.8341 338.087 72.2924 Q333.307 73.7508 327.96 73.7508 Q314.227 73.7508 306.328 65.3654 Q298.429 56.9395 298.429 42.3968 Q298.429 27.8135 306.328 19.4281 Q314.227 11.0023 327.96 11.0023 Q333.388 11.0023 338.168 12.4606 Q342.989 13.8784 347.202 16.7545 Z" fill="#000000" fill-rule="evenodd" fill-opacity="1" /><path clip-path="url(#clip150)" d="M358.747 54.671 L358.747 27.2059 L366.2 27.2059 L366.2 54.3874 Q366.2 60.8284 368.712 64.0691 Q371.223 67.2693 376.247 67.2693 Q382.282 67.2693 385.766 63.421 Q389.29 59.5726 389.29 52.9291 L389.29 27.2059 L396.744 27.2059 L396.744 72.576 L389.29 72.576 L389.29 65.6084 Q386.576 69.7404 382.971 71.7658 Q379.406 73.7508 374.667 73.7508 Q366.848 73.7508 362.798 68.8897 Q358.747 64.0286 358.747 54.671 M377.502 26.1121 L377.502 26.1121 Z" fill="#000000" fill-rule="evenodd" fill-opacity="1" /><path clip-path="url(#clip150)" d="M447.421 35.9153 Q450.216 30.8922 454.105 28.5022 Q457.994 26.1121 463.26 26.1121 Q470.349 26.1121 474.197 31.0947 Q478.046 36.0368 478.046 45.1919 L478.046 72.576 L470.552 72.576 L470.552 45.4349 Q470.552 38.913 468.243 35.7533 Q465.934 32.5936 461.194 32.5936 Q455.401 32.5936 452.039 36.4419 Q448.677 40.2903 448.677 46.9338 L448.677 72.576 L441.183 72.576 L441.183 45.4349 Q441.183 38.8725 438.873 35.7533 Q436.564 32.5936 431.744 32.5936 Q426.032 32.5936 422.67 36.4824 Q419.308 40.3308 419.308 46.9338 L419.308 72.576 L411.813 72.576 L411.813 27.2059 L419.308 27.2059 L419.308 34.2544 Q421.86 30.082 425.424 28.0971 Q428.989 26.1121 433.891 26.1121 Q438.833 26.1121 442.276 28.6237 Q445.76 31.1352 447.421 35.9153 Z" fill="#000000" fill-rule="evenodd" fill-opacity="1" /><path clip-path="url(#clip150)" d="M492.143 54.671 L492.143 27.2059 L499.597 27.2059 L499.597 54.3874 Q499.597 60.8284 502.108 64.0691 Q504.62 67.2693 509.643 67.2693 Q515.679 67.2693 519.162 63.421 Q522.687 59.5726 522.687 52.9291 L522.687 27.2059 L530.14 27.2059 L530.14 72.576 L522.687 72.576 L522.687 65.6084 Q519.973 69.7404 516.367 71.7658 Q512.802 73.7508 508.063 73.7508 Q500.245 73.7508 496.194 68.8897 Q492.143 64.0286 492.143 54.671 M510.899 26.1121 L510.899 26.1121 Z" fill="#000000" fill-rule="evenodd" fill-opacity="1" /><path clip-path="url(#clip150)" d="M545.493 9.54393 L552.947 9.54393 L552.947 72.576 L545.493 72.576 L545.493 9.54393 Z" fill="#000000" fill-rule="evenodd" fill-opacity="1" /><path clip-path="url(#clip150)" d="M589.162 49.7694 Q580.129 49.7694 576.645 51.8354 Q573.161 53.9013 573.161 58.8839 Q573.161 62.8538 575.754 65.2034 Q578.387 67.5124 582.883 67.5124 Q589.081 67.5124 592.808 63.1374 Q596.575 58.7219 596.575 51.4303 L596.575 49.7694 L589.162 49.7694 M604.029 46.6907 L604.029 72.576 L596.575 72.576 L596.575 65.6895 Q594.023 69.8214 590.215 71.8063 Q586.407 73.7508 580.898 73.7508 Q573.931 73.7508 569.799 69.8619 Q565.707 65.9325 565.707 59.3701 Q565.707 51.7138 570.811 47.825 Q575.956 43.9361 586.124 43.9361 L596.575 43.9361 L596.575 43.2069 Q596.575 38.0623 593.172 35.2672 Q589.81 32.4315 583.693 32.4315 Q579.804 32.4315 576.118 33.3632 Q572.432 34.295 569.029 36.1584 L569.029 29.2718 Q573.12 27.692 576.969 26.9223 Q580.817 26.1121 584.463 26.1121 Q594.307 26.1121 599.168 31.2163 Q604.029 36.3204 604.029 46.6907 Z" fill="#000000" fill-rule="evenodd" fill-opacity="1" /><path clip-path="url(#clip150)" d="M626.754 14.324 L626.754 27.2059 L642.107 27.2059 L642.107 32.9987 L626.754 32.9987 L626.754 57.6282 Q626.754 63.1779 628.253 64.7578 Q629.793 66.3376 634.451 66.3376 L642.107 66.3376 L642.107 72.576 L634.451 72.576 Q625.823 72.576 622.541 69.3758 Q619.26 66.1351 619.26 57.6282 L619.26 32.9987 L613.792 32.9987 L613.792 27.2059 L619.26 27.2059 L619.26 14.324 L626.754 14.324 Z" fill="#000000" fill-rule="evenodd" fill-opacity="1" /><path clip-path="url(#clip150)" d="M651.911 27.2059 L659.364 27.2059 L659.364 72.576 L651.911 72.576 L651.911 27.2059 M651.911 9.54393 L659.364 9.54393 L659.364 18.9825 L651.911 18.9825 L651.911 9.54393 Z" fill="#000000" fill-rule="evenodd" fill-opacity="1" /><path clip-path="url(#clip150)" d="M669.613 27.2059 L677.512 27.2059 L691.69 65.2844 L705.869 27.2059 L713.768 27.2059 L696.754 72.576 L686.627 72.576 L669.613 27.2059 Z" fill="#000000" fill-rule="evenodd" fill-opacity="1" /><path clip-path="url(#clip150)" d="M762.865 48.0275 L762.865 51.6733 L728.594 51.6733 Q729.08 59.3701 733.212 63.421 Q737.385 67.4314 744.798 67.4314 Q749.092 67.4314 753.102 66.3781 Q757.153 65.3249 761.123 63.2184 L761.123 70.267 Q757.113 71.9684 752.9 72.8596 Q748.687 73.7508 744.352 73.7508 Q733.496 73.7508 727.136 67.4314 Q720.816 61.1119 720.816 50.3365 Q720.816 39.1965 726.812 32.6746 Q732.848 26.1121 743.056 26.1121 Q752.211 26.1121 757.518 32.0264 Q762.865 37.9003 762.865 48.0275 M755.411 45.84 Q755.33 39.7232 751.968 36.0774 Q748.646 32.4315 743.137 32.4315 Q736.899 32.4315 733.131 35.9558 Q729.404 39.4801 728.837 45.8805 L755.411 45.84 Z" fill="#000000" fill-rule="evenodd" fill-opacity="1" /><path clip-path="url(#clip150)" d="M809.977 18.8205 L809.977 65.8515 L819.861 65.8515 Q832.378 65.8515 838.171 60.1802 Q844.004 54.509 844.004 42.2752 Q844.004 30.1225 838.171 24.4918 Q832.378 18.8205 819.861 18.8205 L809.977 18.8205 M801.794 12.096 L818.605 12.096 Q836.186 12.096 844.41 19.4281 Q852.633 26.7198 852.633 42.2752 Q852.633 57.9117 844.369 65.2439 Q836.105 72.576 818.605 72.576 L801.794 72.576 L801.794 12.096 Z" fill="#000000" fill-rule="evenodd" fill-opacity="1" /><path clip-path="url(#clip150)" d="M865.353 27.2059 L872.806 27.2059 L872.806 72.576 L865.353 72.576 L865.353 27.2059 M865.353 9.54393 L872.806 9.54393 L872.806 18.9825 L865.353 18.9825 L865.353 9.54393 Z" fill="#000000" fill-rule="evenodd" fill-opacity="1" /><path clip-path="url(#clip150)" d="M917.326 28.5427 L917.326 35.5912 Q914.166 33.9709 910.763 33.1607 Q907.361 32.3505 903.715 32.3505 Q898.165 32.3505 895.37 34.0519 Q892.615 35.7533 892.615 39.156 Q892.615 41.7486 894.6 43.2475 Q896.585 44.7058 902.581 46.0426 L905.133 46.6097 Q913.072 48.3111 916.394 51.4303 Q919.756 54.509 919.756 60.0587 Q919.756 66.3781 914.733 70.0644 Q909.751 73.7508 901.001 73.7508 Q897.355 73.7508 893.385 73.0216 Q889.456 72.3329 885.081 70.9151 L885.081 63.2184 Q889.213 65.3654 893.223 66.4591 Q897.233 67.5124 901.163 67.5124 Q906.429 67.5124 909.264 65.73 Q912.1 63.9071 912.1 60.6258 Q912.1 57.5877 910.034 55.9673 Q908.009 54.3469 901.082 52.8481 L898.489 52.2405 Q891.562 50.7821 888.483 47.7845 Q885.405 44.7463 885.405 39.4801 Q885.405 33.0797 889.942 29.5959 Q894.479 26.1121 902.824 26.1121 Q906.955 26.1121 910.601 26.7198 Q914.247 27.3274 917.326 28.5427 Z" fill="#000000" fill-rule="evenodd" fill-opacity="1" /><path clip-path="url(#clip150)" d="M938.998 14.324 L938.998 27.2059 L954.351 27.2059 L954.351 32.9987 L938.998 32.9987 L938.998 57.6282 Q938.998 63.1779 940.497 64.7578 Q942.036 66.3376 946.695 66.3376 L954.351 66.3376 L954.351 72.576 L946.695 72.576 Q938.066 72.576 934.785 69.3758 Q931.504 66.1351 931.504 57.6282 L931.504 32.9987 L926.035 32.9987 L926.035 27.2059 L931.504 27.2059 L931.504 14.324 L938.998 14.324 Z" fill="#000000" fill-rule="evenodd" fill-opacity="1" /><path clip-path="url(#clip150)" d="M990.445 34.1734 Q989.189 33.4443 987.69 33.1202 Q986.232 32.7556 984.449 32.7556 Q978.13 32.7556 974.727 36.8875 Q971.365 40.9789 971.365 48.6757 L971.365 72.576 L963.871 72.576 L963.871 27.2059 L971.365 27.2059 L971.365 34.2544 Q973.714 30.1225 977.482 28.1376 Q981.249 26.1121 986.637 26.1121 Q987.406 26.1121 988.338 26.2337 Q989.27 26.3147 990.404 26.5172 L990.445 34.1734 Z" fill="#000000" fill-rule="evenodd" fill-opacity="1" /><path clip-path="url(#clip150)" d="M998.263 27.2059 L1005.72 27.2059 L1005.72 72.576 L998.263 72.576 L998.263 27.2059 M998.263 9.54393 L1005.72 9.54393 L1005.72 18.9825 L998.263 18.9825 L998.263 9.54393 Z" fill="#000000" fill-rule="evenodd" fill-opacity="1" /><path clip-path="url(#clip150)" d="M1053.88 49.9314 Q1053.88 41.7081 1050.48 37.0496 Q1047.12 32.3505 1041.2 32.3505 Q1035.29 32.3505 1031.89 37.0496 Q1028.52 41.7081 1028.52 49.9314 Q1028.52 58.1548 1031.89 62.8538 Q1035.29 67.5124 1041.2 67.5124 Q1047.12 67.5124 1050.48 62.8538 Q1053.88 58.1548 1053.88 49.9314 M1028.52 34.0924 Q1030.87 30.0415 1034.44 28.0971 Q1038.04 26.1121 1043.03 26.1121 Q1051.29 26.1121 1056.43 32.6746 Q1061.62 39.2371 1061.62 49.9314 Q1061.62 60.6258 1056.43 67.1883 Q1051.29 73.7508 1043.03 73.7508 Q1038.04 73.7508 1034.44 71.8063 Q1030.87 69.8214 1028.52 65.7705 L1028.52 72.576 L1021.03 72.576 L1021.03 9.54393 L1028.52 9.54393 L1028.52 34.0924 Z" fill="#000000" fill-rule="evenodd" fill-opacity="1" /><path clip-path="url(#clip150)" d="M1073.2 54.671 L1073.2 27.2059 L1080.66 27.2059 L1080.66 54.3874 Q1080.66 60.8284 1083.17 64.0691 Q1085.68 67.2693 1090.7 67.2693 Q1096.74 67.2693 1100.22 63.421 Q1103.75 59.5726 1103.75 52.9291 L1103.75 27.2059 L1111.2 27.2059 L1111.2 72.576 L1103.75 72.576 L1103.75 65.6084 Q1101.03 69.7404 1097.43 71.7658 Q1093.86 73.7508 1089.12 73.7508 Q1081.31 73.7508 1077.26 68.8897 Q1073.2 64.0286 1073.2 54.671 M1091.96 26.1121 L1091.96 26.1121 Z" fill="#000000" fill-rule="evenodd" fill-opacity="1" /><path clip-path="url(#clip150)" d="M1133.93 14.324 L1133.93 27.2059 L1149.28 27.2059 L1149.28 32.9987 L1133.93 32.9987 L1133.93 57.6282 Q1133.93 63.1779 1135.43 64.7578 Q1136.97 66.3376 1141.62 66.3376 L1149.28 66.3376 L1149.28 72.576 L1141.62 72.576 Q1133 72.576 1129.71 69.3758 Q1126.43 66.1351 1126.43 57.6282 L1126.43 32.9987 L1120.96 32.9987 L1120.96 27.2059 L1126.43 27.2059 L1126.43 14.324 L1133.93 14.324 Z" fill="#000000" fill-rule="evenodd" fill-opacity="1" /><path clip-path="url(#clip150)" d="M1159.08 27.2059 L1166.54 27.2059 L1166.54 72.576 L1159.08 72.576 L1159.08 27.2059 M1159.08 9.54393 L1166.54 9.54393 L1166.54 18.9825 L1159.08 18.9825 L1159.08 9.54393 Z" fill="#000000" fill-rule="evenodd" fill-opacity="1" /><path clip-path="url(#clip150)" d="M1199.71 32.4315 Q1193.72 32.4315 1190.24 37.1306 Q1186.75 41.7891 1186.75 49.9314 Q1186.75 58.0738 1190.19 62.7728 Q1193.68 67.4314 1199.71 67.4314 Q1205.67 67.4314 1209.15 62.7323 Q1212.64 58.0333 1212.64 49.9314 Q1212.64 41.8701 1209.15 37.1711 Q1205.67 32.4315 1199.71 32.4315 M1199.71 26.1121 Q1209.44 26.1121 1214.99 32.4315 Q1220.54 38.7509 1220.54 49.9314 Q1220.54 61.0714 1214.99 67.4314 Q1209.44 73.7508 1199.71 73.7508 Q1189.95 73.7508 1184.4 67.4314 Q1178.89 61.0714 1178.89 49.9314 Q1178.89 38.7509 1184.4 32.4315 Q1189.95 26.1121 1199.71 26.1121 Z" fill="#000000" fill-rule="evenodd" fill-opacity="1" /><path clip-path="url(#clip150)" d="M1270.61 45.1919 L1270.61 72.576 L1263.15 72.576 L1263.15 45.4349 Q1263.15 38.994 1260.64 35.7938 Q1258.13 32.5936 1253.11 32.5936 Q1247.07 32.5936 1243.59 36.4419 Q1240.1 40.2903 1240.1 46.9338 L1240.1 72.576 L1232.61 72.576 L1232.61 27.2059 L1240.1 27.2059 L1240.1 34.2544 Q1242.78 30.163 1246.38 28.1376 Q1250.03 26.1121 1254.77 26.1121 Q1262.58 26.1121 1266.59 30.9732 Q1270.61 35.7938 1270.61 45.1919 Z" fill="#000000" fill-rule="evenodd" fill-opacity="1" /><path clip-path="url(#clip150)" d="M1334.81 9.54393 L1334.81 15.7418 L1327.68 15.7418 Q1323.67 15.7418 1322.09 17.3622 Q1320.55 18.9825 1320.55 23.1955 L1320.55 27.2059 L1332.83 27.2059 L1332.83 32.9987 L1320.55 32.9987 L1320.55 72.576 L1313.06 72.576 L1313.06 32.9987 L1305.93 32.9987 L1305.93 27.2059 L1313.06 27.2059 L1313.06 24.0462 Q1313.06 16.471 1316.58 13.0277 Q1320.11 9.54393 1327.76 9.54393 L1334.81 9.54393 Z" fill="#000000" fill-rule="evenodd" fill-opacity="1" /><path clip-path="url(#clip150)" d="M1340.28 54.671 L1340.28 27.2059 L1347.73 27.2059 L1347.73 54.3874 Q1347.73 60.8284 1350.25 64.0691 Q1352.76 67.2693 1357.78 67.2693 Q1363.82 67.2693 1367.3 63.421 Q1370.82 59.5726 1370.82 52.9291 L1370.82 27.2059 L1378.28 27.2059 L1378.28 72.576 L1370.82 72.576 L1370.82 65.6084 Q1368.11 69.7404 1364.51 71.7658 Q1360.94 73.7508 1356.2 73.7508 Q1348.38 73.7508 1344.33 68.8897 Q1340.28 64.0286 1340.28 54.671 M1359.04 26.1121 L1359.04 26.1121 Z" fill="#000000" fill-rule="evenodd" fill-opacity="1" /><path clip-path="url(#clip150)" d="M1431.35 45.1919 L1431.35 72.576 L1423.89 72.576 L1423.89 45.4349 Q1423.89 38.994 1421.38 35.7938 Q1418.87 32.5936 1413.85 32.5936 Q1407.81 32.5936 1404.33 36.4419 Q1400.84 40.2903 1400.84 46.9338 L1400.84 72.576 L1393.35 72.576 L1393.35 27.2059 L1400.84 27.2059 L1400.84 34.2544 Q1403.52 30.163 1407.12 28.1376 Q1410.77 26.1121 1415.51 26.1121 Q1423.32 26.1121 1427.33 30.9732 Q1431.35 35.7938 1431.35 45.1919 Z" fill="#000000" fill-rule="evenodd" fill-opacity="1" /><path clip-path="url(#clip150)" d="M1478.86 28.9478 L1478.86 35.9153 Q1475.7 34.1734 1472.5 33.3227 Q1469.34 32.4315 1466.1 32.4315 Q1458.85 32.4315 1454.84 37.0496 Q1450.83 41.6271 1450.83 49.9314 Q1450.83 58.2358 1454.84 62.8538 Q1458.85 67.4314 1466.1 67.4314 Q1469.34 67.4314 1472.5 66.5807 Q1475.7 65.6895 1478.86 63.9476 L1478.86 70.8341 Q1475.74 72.2924 1472.38 73.0216 Q1469.06 73.7508 1465.29 73.7508 Q1455.04 73.7508 1449.01 67.3098 Q1442.97 60.8689 1442.97 49.9314 Q1442.97 38.832 1449.05 32.472 Q1455.16 26.1121 1465.78 26.1121 Q1469.22 26.1121 1472.5 26.8413 Q1475.78 27.5299 1478.86 28.9478 Z" fill="#000000" fill-rule="evenodd" fill-opacity="1" /><path clip-path="url(#clip150)" d="M1499.2 14.324 L1499.2 27.2059 L1514.55 27.2059 L1514.55 32.9987 L1499.2 32.9987 L1499.2 57.6282 Q1499.2 63.1779 1500.7 64.7578 Q1502.24 66.3376 1506.89 66.3376 L1514.55 66.3376 L1514.55 72.576 L1506.89 72.576 Q1498.27 72.576 1494.98 69.3758 Q1491.7 66.1351 1491.7 57.6282 L1491.7 32.9987 L1486.23 32.9987 L1486.23 27.2059 L1491.7 27.2059 L1491.7 14.324 L1499.2 14.324 Z" fill="#000000" fill-rule="evenodd" fill-opacity="1" /><path clip-path="url(#clip150)" d="M1524.35 27.2059 L1531.81 27.2059 L1531.81 72.576 L1524.35 72.576 L1524.35 27.2059 M1524.35 9.54393 L1531.81 9.54393 L1531.81 18.9825 L1524.35 18.9825 L1524.35 9.54393 Z" fill="#000000" fill-rule="evenodd" fill-opacity="1" /><path clip-path="url(#clip150)" d="M1564.98 32.4315 Q1558.99 32.4315 1555.51 37.1306 Q1552.02 41.7891 1552.02 49.9314 Q1552.02 58.0738 1555.46 62.7728 Q1558.95 67.4314 1564.98 67.4314 Q1570.94 67.4314 1574.42 62.7323 Q1577.91 58.0333 1577.91 49.9314 Q1577.91 41.8701 1574.42 37.1711 Q1570.94 32.4315 1564.98 32.4315 M1564.98 26.1121 Q1574.71 26.1121 1580.26 32.4315 Q1585.81 38.7509 1585.81 49.9314 Q1585.81 61.0714 1580.26 67.4314 Q1574.71 73.7508 1564.98 73.7508 Q1555.22 73.7508 1549.67 67.4314 Q1544.16 61.0714 1544.16 49.9314 Q1544.16 38.7509 1549.67 32.4315 Q1555.22 26.1121 1564.98 26.1121 Z" fill="#000000" fill-rule="evenodd" fill-opacity="1" /><path clip-path="url(#clip150)" d="M1635.88 45.1919 L1635.88 72.576 L1628.42 72.576 L1628.42 45.4349 Q1628.42 38.994 1625.91 35.7938 Q1623.4 32.5936 1618.38 32.5936 Q1612.34 32.5936 1608.86 36.4419 Q1605.37 40.2903 1605.37 46.9338 L1605.37 72.576 L1597.88 72.576 L1597.88 27.2059 L1605.37 27.2059 L1605.37 34.2544 Q1608.05 30.163 1611.65 28.1376 Q1615.3 26.1121 1620.04 26.1121 Q1627.85 26.1121 1631.86 30.9732 Q1635.88 35.7938 1635.88 45.1919 Z" fill="#000000" fill-rule="evenodd" fill-opacity="1" /><path clip-path="url(#clip150)" d="M1722.73 16.7545 L1722.73 25.383 Q1718.59 21.5346 1713.9 19.6307 Q1709.24 17.7268 1703.97 17.7268 Q1693.6 17.7268 1688.09 24.0867 Q1682.58 30.4061 1682.58 42.3968 Q1682.58 54.3469 1688.09 60.7069 Q1693.6 67.0263 1703.97 67.0263 Q1709.24 67.0263 1713.9 65.1223 Q1718.59 63.2184 1722.73 59.3701 L1722.73 67.9175 Q1718.43 70.8341 1713.61 72.2924 Q1708.83 73.7508 1703.48 73.7508 Q1689.75 73.7508 1681.85 65.3654 Q1673.95 56.9395 1673.95 42.3968 Q1673.95 27.8135 1681.85 19.4281 Q1689.75 11.0023 1703.48 11.0023 Q1708.91 11.0023 1713.69 12.4606 Q1718.51 13.8784 1722.73 16.7545 Z" fill="#000000" fill-rule="evenodd" fill-opacity="1" /><path clip-path="url(#clip150)" d="M1743.55 18.8205 L1743.55 65.8515 L1753.43 65.8515 Q1765.95 65.8515 1771.74 60.1802 Q1777.58 54.509 1777.58 42.2752 Q1777.58 30.1225 1771.74 24.4918 Q1765.95 18.8205 1753.43 18.8205 L1743.55 18.8205 M1735.37 12.096 L1752.18 12.096 Q1769.76 12.096 1777.98 19.4281 Q1786.2 26.7198 1786.2 42.2752 Q1786.2 57.9117 1777.94 65.2439 Q1769.68 72.576 1752.18 72.576 L1735.37 72.576 L1735.37 12.096 Z" fill="#000000" fill-rule="evenodd" fill-opacity="1" /><path clip-path="url(#clip150)" d="M1799.25 12.096 L1834 12.096 L1834 18.9825 L1807.43 18.9825 L1807.43 36.8065 L1831.41 36.8065 L1831.41 43.6931 L1807.43 43.6931 L1807.43 72.576 L1799.25 72.576 L1799.25 12.096 Z" fill="#000000" fill-rule="evenodd" fill-opacity="1" /><path clip-path="url(#clip150)" d="M1848.55 29.6769 L1857.1 29.6769 L1857.1 39.9662 L1848.55 39.9662 L1848.55 29.6769 M1848.55 62.2867 L1857.1 62.2867 L1857.1 69.2543 L1850.45 82.2172 L1845.23 82.2172 L1848.55 69.2543 L1848.55 62.2867 Z" fill="#000000" fill-rule="evenodd" fill-opacity="1" /><path clip-path="url(#clip150)" d="M1939.77 48.0275 L1939.77 51.6733 L1905.5 51.6733 Q1905.99 59.3701 1910.12 63.421 Q1914.29 67.4314 1921.71 67.4314 Q1926 67.4314 1930.01 66.3781 Q1934.06 65.3249 1938.03 63.2184 L1938.03 70.267 Q1934.02 71.9684 1929.81 72.8596 Q1925.6 73.7508 1921.26 73.7508 Q1910.4 73.7508 1904.05 67.4314 Q1897.73 61.1119 1897.73 50.3365 Q1897.73 39.1965 1903.72 32.6746 Q1909.76 26.1121 1919.97 26.1121 Q1929.12 26.1121 1934.43 32.0264 Q1939.77 37.9003 1939.77 48.0275 M1932.32 45.84 Q1932.24 39.7232 1928.88 36.0774 Q1925.56 32.4315 1920.05 32.4315 Q1913.81 32.4315 1910.04 35.9558 Q1906.31 39.4801 1905.75 45.8805 L1932.32 45.84 Z" fill="#000000" fill-rule="evenodd" fill-opacity="1" /><path clip-path="url(#clip150)" d="M1946.66 27.2059 L1954.56 27.2059 L1968.74 65.2844 L1982.92 27.2059 L1990.82 27.2059 L1973.8 72.576 L1963.67 72.576 L1946.66 27.2059 Z" fill="#000000" fill-rule="evenodd" fill-opacity="1" /><path clip-path="url(#clip150)" d="M2039.91 48.0275 L2039.91 51.6733 L2005.64 51.6733 Q2006.13 59.3701 2010.26 63.421 Q2014.43 67.4314 2021.85 67.4314 Q2026.14 67.4314 2030.15 66.3781 Q2034.2 65.3249 2038.17 63.2184 L2038.17 70.267 Q2034.16 71.9684 2029.95 72.8596 Q2025.73 73.7508 2021.4 73.7508 Q2010.54 73.7508 2004.18 67.4314 Q1997.86 61.1119 1997.86 50.3365 Q1997.86 39.1965 2003.86 32.6746 Q2009.9 26.1121 2020.1 26.1121 Q2029.26 26.1121 2034.57 32.0264 Q2039.91 37.9003 2039.91 48.0275 M2032.46 45.84 Q2032.38 39.7232 2029.02 36.0774 Q2025.69 32.4315 2020.18 32.4315 Q2013.95 32.4315 2010.18 35.9558 Q2006.45 39.4801 2005.88 45.8805 L2032.46 45.84 Z" fill="#000000" fill-rule="evenodd" fill-opacity="1" /><path clip-path="url(#clip150)" d="M2078.44 34.1734 Q2077.18 33.4443 2075.68 33.1202 Q2074.22 32.7556 2072.44 32.7556 Q2066.12 32.7556 2062.72 36.8875 Q2059.36 40.9789 2059.36 48.6757 L2059.36 72.576 L2051.86 72.576 L2051.86 27.2059 L2059.36 27.2059 L2059.36 34.2544 Q2061.71 30.1225 2065.47 28.1376 Q2069.24 26.1121 2074.63 26.1121 Q2075.4 26.1121 2076.33 26.2337 Q2077.26 26.3147 2078.4 26.5172 L2078.44 34.1734 Z" fill="#000000" fill-rule="evenodd" fill-opacity="1" /><path clip-path="url(#clip150)" d="M2105.13 76.7889 Q2101.97 84.8907 2098.97 87.3618 Q2095.98 89.8329 2090.95 89.8329 L2085 89.8329 L2085 83.5945 L2089.37 83.5945 Q2092.45 83.5945 2094.15 82.1361 Q2095.86 80.6778 2097.92 75.2496 L2099.26 71.8468 L2080.91 27.2059 L2088.81 27.2059 L2102.98 62.6918 L2117.16 27.2059 L2125.06 27.2059 L2105.13 76.7889 Z" fill="#000000" fill-rule="evenodd" fill-opacity="1" /><path clip-path="url(#clip150)" d="M2164.19 65.6895 L2177.56 65.6895 L2177.56 19.5497 L2163.02 22.4663 L2163.02 15.0127 L2177.48 12.096 L2185.66 12.096 L2185.66 65.6895 L2199.03 65.6895 L2199.03 72.576 L2164.19 72.576 L2164.19 65.6895 Z" fill="#000000" fill-rule="evenodd" fill-opacity="1" /><path clip-path="url(#clip150)" d="M2253.31 48.0275 L2253.31 51.6733 L2219.04 51.6733 Q2219.53 59.3701 2223.66 63.421 Q2227.83 67.4314 2235.25 67.4314 Q2239.54 67.4314 2243.55 66.3781 Q2247.6 65.3249 2251.57 63.2184 L2251.57 70.267 Q2247.56 71.9684 2243.35 72.8596 Q2239.14 73.7508 2234.8 73.7508 Q2223.94 73.7508 2217.59 67.4314 Q2211.27 61.1119 2211.27 50.3365 Q2211.27 39.1965 2217.26 32.6746 Q2223.3 26.1121 2233.51 26.1121 Q2242.66 26.1121 2247.97 32.0264 Q2253.31 37.9003 2253.31 48.0275 M2245.86 45.84 Q2245.78 39.7232 2242.42 36.0774 Q2239.1 32.4315 2233.59 32.4315 Q2227.35 32.4315 2223.58 35.9558 Q2219.85 39.4801 2219.29 45.8805 L2245.86 45.84 Z" fill="#000000" fill-rule="evenodd" fill-opacity="1" /><path clip-path="url(#clip150)" d="M2291.39 39.9662 Q2297.27 41.222 2300.55 45.1919 Q2303.87 49.1618 2303.87 54.9951 Q2303.87 63.9476 2297.71 68.8492 Q2291.55 73.7508 2280.21 73.7508 Q2276.4 73.7508 2272.35 72.9811 Q2268.34 72.2519 2264.05 70.7531 L2264.05 62.8538 Q2267.45 64.8388 2271.5 65.8515 Q2275.55 66.8642 2279.97 66.8642 Q2287.67 66.8642 2291.68 63.826 Q2295.73 60.7879 2295.73 54.9951 Q2295.73 49.6479 2291.96 46.6502 Q2288.23 43.612 2281.55 43.612 L2274.5 43.612 L2274.5 36.8875 L2281.87 36.8875 Q2287.91 36.8875 2291.11 34.4975 Q2294.31 32.067 2294.31 27.5299 Q2294.31 22.8714 2290.99 20.4004 Q2287.71 17.8888 2281.55 17.8888 Q2278.19 17.8888 2274.34 18.618 Q2270.49 19.3471 2265.87 20.8865 L2265.87 13.5948 Q2270.53 12.2985 2274.58 11.6504 Q2278.67 11.0023 2282.28 11.0023 Q2291.6 11.0023 2297.02 15.2557 Q2302.45 19.4686 2302.45 26.6793 Q2302.45 31.7024 2299.58 35.1862 Q2296.7 38.6294 2291.39 39.9662 Z" fill="#000000" fill-rule="evenodd" fill-opacity="1" /><circle clip-path="url(#clip152)" cx="284.596" cy="1423.18" r="14" fill="#009af9" fill-rule="evenodd" fill-opacity="1" stroke="#000000" stroke-opacity="1" stroke-width="3.2"/>
<circle clip-path="url(#clip152)" cx="319.649" cy="1388.52" r="14" fill="#009af9" fill-rule="evenodd" fill-opacity="1" stroke="#000000" stroke-opacity="1" stroke-width="3.2"/>
<circle clip-path="url(#clip152)" cx="354.703" cy="1351.85" r="14" fill="#009af9" fill-rule="evenodd" fill-opacity="1" stroke="#000000" stroke-opacity="1" stroke-width="3.2"/>
<circle clip-path="url(#clip152)" cx="389.756" cy="1313.07" r="14" fill="#009af9" fill-rule="evenodd" fill-opacity="1" stroke="#000000" stroke-opacity="1" stroke-width="3.2"/>
<circle clip-path="url(#clip152)" cx="424.81" cy="1273.42" r="14" fill="#009af9" fill-rule="evenodd" fill-opacity="1" stroke="#000000" stroke-opacity="1" stroke-width="3.2"/>
<circle clip-path="url(#clip152)" cx="459.863" cy="1231.42" r="14" fill="#009af9" fill-rule="evenodd" fill-opacity="1" stroke="#000000" stroke-opacity="1" stroke-width="3.2"/>
<circle clip-path="url(#clip152)" cx="494.917" cy="1189.48" r="14" fill="#009af9" fill-rule="evenodd" fill-opacity="1" stroke="#000000" stroke-opacity="1" stroke-width="3.2"/>
<circle clip-path="url(#clip152)" cx="529.971" cy="1145.75" r="14" fill="#009af9" fill-rule="evenodd" fill-opacity="1" stroke="#000000" stroke-opacity="1" stroke-width="3.2"/>
<circle clip-path="url(#clip152)" cx="565.024" cy="1101.66" r="14" fill="#009af9" fill-rule="evenodd" fill-opacity="1" stroke="#000000" stroke-opacity="1" stroke-width="3.2"/>
<circle clip-path="url(#clip152)" cx="600.078" cy="1057.48" r="14" fill="#009af9" fill-rule="evenodd" fill-opacity="1" stroke="#000000" stroke-opacity="1" stroke-width="3.2"/>
<circle clip-path="url(#clip152)" cx="635.131" cy="1012.26" r="14" fill="#009af9" fill-rule="evenodd" fill-opacity="1" stroke="#000000" stroke-opacity="1" stroke-width="3.2"/>
<circle clip-path="url(#clip152)" cx="670.185" cy="968.693" r="14" fill="#009af9" fill-rule="evenodd" fill-opacity="1" stroke="#000000" stroke-opacity="1" stroke-width="3.2"/>
<circle clip-path="url(#clip152)" cx="705.238" cy="924.59" r="14" fill="#009af9" fill-rule="evenodd" fill-opacity="1" stroke="#000000" stroke-opacity="1" stroke-width="3.2"/>
<circle clip-path="url(#clip152)" cx="740.292" cy="881.379" r="14" fill="#009af9" fill-rule="evenodd" fill-opacity="1" stroke="#000000" stroke-opacity="1" stroke-width="3.2"/>
<circle clip-path="url(#clip152)" cx="775.346" cy="839.238" r="14" fill="#009af9" fill-rule="evenodd" fill-opacity="1" stroke="#000000" stroke-opacity="1" stroke-width="3.2"/>
<circle clip-path="url(#clip152)" cx="810.399" cy="798.33" r="14" fill="#009af9" fill-rule="evenodd" fill-opacity="1" stroke="#000000" stroke-opacity="1" stroke-width="3.2"/>
<circle clip-path="url(#clip152)" cx="845.453" cy="757.764" r="14" fill="#009af9" fill-rule="evenodd" fill-opacity="1" stroke="#000000" stroke-opacity="1" stroke-width="3.2"/>
<circle clip-path="url(#clip152)" cx="880.506" cy="719.723" r="14" fill="#009af9" fill-rule="evenodd" fill-opacity="1" stroke="#000000" stroke-opacity="1" stroke-width="3.2"/>
<circle clip-path="url(#clip152)" cx="915.56" cy="682.312" r="14" fill="#009af9" fill-rule="evenodd" fill-opacity="1" stroke="#000000" stroke-opacity="1" stroke-width="3.2"/>
<circle clip-path="url(#clip152)" cx="950.613" cy="646.635" r="14" fill="#009af9" fill-rule="evenodd" fill-opacity="1" stroke="#000000" stroke-opacity="1" stroke-width="3.2"/>
<circle clip-path="url(#clip152)" cx="985.667" cy="611.975" r="14" fill="#009af9" fill-rule="evenodd" fill-opacity="1" stroke="#000000" stroke-opacity="1" stroke-width="3.2"/>
<circle clip-path="url(#clip152)" cx="1020.72" cy="579.851" r="14" fill="#009af9" fill-rule="evenodd" fill-opacity="1" stroke="#000000" stroke-opacity="1" stroke-width="3.2"/>
<circle clip-path="url(#clip152)" cx="1055.77" cy="548.894" r="14" fill="#009af9" fill-rule="evenodd" fill-opacity="1" stroke="#000000" stroke-opacity="1" stroke-width="3.2"/>
<circle clip-path="url(#clip152)" cx="1090.83" cy="519.871" r="14" fill="#009af9" fill-rule="evenodd" fill-opacity="1" stroke="#000000" stroke-opacity="1" stroke-width="3.2"/>
<circle clip-path="url(#clip152)" cx="1125.88" cy="492.62" r="14" fill="#009af9" fill-rule="evenodd" fill-opacity="1" stroke="#000000" stroke-opacity="1" stroke-width="3.2"/>
<circle clip-path="url(#clip152)" cx="1160.93" cy="466.925" r="14" fill="#009af9" fill-rule="evenodd" fill-opacity="1" stroke="#000000" stroke-opacity="1" stroke-width="3.2"/>
<circle clip-path="url(#clip152)" cx="1195.99" cy="443.025" r="14" fill="#009af9" fill-rule="evenodd" fill-opacity="1" stroke="#000000" stroke-opacity="1" stroke-width="3.2"/>
<circle clip-path="url(#clip152)" cx="1231.04" cy="420.916" r="14" fill="#009af9" fill-rule="evenodd" fill-opacity="1" stroke="#000000" stroke-opacity="1" stroke-width="3.2"/>
<circle clip-path="url(#clip152)" cx="1266.1" cy="400.319" r="14" fill="#009af9" fill-rule="evenodd" fill-opacity="1" stroke="#000000" stroke-opacity="1" stroke-width="3.2"/>
<circle clip-path="url(#clip152)" cx="1301.15" cy="381.456" r="14" fill="#009af9" fill-rule="evenodd" fill-opacity="1" stroke="#000000" stroke-opacity="1" stroke-width="3.2"/>
<circle clip-path="url(#clip152)" cx="1336.2" cy="364.066" r="14" fill="#009af9" fill-rule="evenodd" fill-opacity="1" stroke="#000000" stroke-opacity="1" stroke-width="3.2"/>
<circle clip-path="url(#clip152)" cx="1371.26" cy="348.491" r="14" fill="#009af9" fill-rule="evenodd" fill-opacity="1" stroke="#000000" stroke-opacity="1" stroke-width="3.2"/>
<circle clip-path="url(#clip152)" cx="1406.31" cy="334.271" r="14" fill="#009af9" fill-rule="evenodd" fill-opacity="1" stroke="#000000" stroke-opacity="1" stroke-width="3.2"/>
<circle clip-path="url(#clip152)" cx="1441.36" cy="321.279" r="14" fill="#009af9" fill-rule="evenodd" fill-opacity="1" stroke="#000000" stroke-opacity="1" stroke-width="3.2"/>
<circle clip-path="url(#clip152)" cx="1476.42" cy="309.76" r="14" fill="#009af9" fill-rule="evenodd" fill-opacity="1" stroke="#000000" stroke-opacity="1" stroke-width="3.2"/>
<circle clip-path="url(#clip152)" cx="1511.47" cy="299.596" r="14" fill="#009af9" fill-rule="evenodd" fill-opacity="1" stroke="#000000" stroke-opacity="1" stroke-width="3.2"/>
<circle clip-path="url(#clip152)" cx="1546.52" cy="290.482" r="14" fill="#009af9" fill-rule="evenodd" fill-opacity="1" stroke="#000000" stroke-opacity="1" stroke-width="3.2"/>
<circle clip-path="url(#clip152)" cx="1581.58" cy="282.553" r="14" fill="#009af9" fill-rule="evenodd" fill-opacity="1" stroke="#000000" stroke-opacity="1" stroke-width="3.2"/>
<circle clip-path="url(#clip152)" cx="1616.63" cy="275.551" r="14" fill="#009af9" fill-rule="evenodd" fill-opacity="1" stroke="#000000" stroke-opacity="1" stroke-width="3.2"/>
<circle clip-path="url(#clip152)" cx="1651.68" cy="269.437" r="14" fill="#009af9" fill-rule="evenodd" fill-opacity="1" stroke="#000000" stroke-opacity="1" stroke-width="3.2"/>
<circle clip-path="url(#clip152)" cx="1686.74" cy="264.244" r="14" fill="#009af9" fill-rule="evenodd" fill-opacity="1" stroke="#000000" stroke-opacity="1" stroke-width="3.2"/>
<circle clip-path="url(#clip152)" cx="1721.79" cy="259.87" r="14" fill="#009af9" fill-rule="evenodd" fill-opacity="1" stroke="#000000" stroke-opacity="1" stroke-width="3.2"/>
<circle clip-path="url(#clip152)" cx="1756.85" cy="256.137" r="14" fill="#009af9" fill-rule="evenodd" fill-opacity="1" stroke="#000000" stroke-opacity="1" stroke-width="3.2"/>
<circle clip-path="url(#clip152)" cx="1791.9" cy="253.017" r="14" fill="#009af9" fill-rule="evenodd" fill-opacity="1" stroke="#000000" stroke-opacity="1" stroke-width="3.2"/>
<circle clip-path="url(#clip152)" cx="1826.95" cy="250.421" r="14" fill="#009af9" fill-rule="evenodd" fill-opacity="1" stroke="#000000" stroke-opacity="1" stroke-width="3.2"/>
<circle clip-path="url(#clip152)" cx="1862.01" cy="248.299" r="14" fill="#009af9" fill-rule="evenodd" fill-opacity="1" stroke="#000000" stroke-opacity="1" stroke-width="3.2"/>
<circle clip-path="url(#clip152)" cx="1897.06" cy="246.622" r="14" fill="#009af9" fill-rule="evenodd" fill-opacity="1" stroke="#000000" stroke-opacity="1" stroke-width="3.2"/>
<circle clip-path="url(#clip152)" cx="1932.11" cy="245.269" r="14" fill="#009af9" fill-rule="evenodd" fill-opacity="1" stroke="#000000" stroke-opacity="1" stroke-width="3.2"/>
<circle clip-path="url(#clip152)" cx="1967.17" cy="244.237" r="14" fill="#009af9" fill-rule="evenodd" fill-opacity="1" stroke="#000000" stroke-opacity="1" stroke-width="3.2"/>
<circle clip-path="url(#clip152)" cx="2002.22" cy="243.438" r="14" fill="#009af9" fill-rule="evenodd" fill-opacity="1" stroke="#000000" stroke-opacity="1" stroke-width="3.2"/>
<circle clip-path="url(#clip152)" cx="2037.27" cy="242.847" r="14" fill="#009af9" fill-rule="evenodd" fill-opacity="1" stroke="#000000" stroke-opacity="1" stroke-width="3.2"/>
<circle clip-path="url(#clip152)" cx="2072.33" cy="242.416" r="14" fill="#009af9" fill-rule="evenodd" fill-opacity="1" stroke="#000000" stroke-opacity="1" stroke-width="3.2"/>
<circle clip-path="url(#clip152)" cx="2107.38" cy="242.113" r="14" fill="#009af9" fill-rule="evenodd" fill-opacity="1" stroke="#000000" stroke-opacity="1" stroke-width="3.2"/>
<circle clip-path="url(#clip152)" cx="2142.43" cy="241.913" r="14" fill="#009af9" fill-rule="evenodd" fill-opacity="1" stroke="#000000" stroke-opacity="1" stroke-width="3.2"/>
<circle clip-path="url(#clip152)" cx="2177.49" cy="241.784" r="14" fill="#009af9" fill-rule="evenodd" fill-opacity="1" stroke="#000000" stroke-opacity="1" stroke-width="3.2"/>
<circle clip-path="url(#clip152)" cx="2212.54" cy="241.707" r="14" fill="#009af9" fill-rule="evenodd" fill-opacity="1" stroke="#000000" stroke-opacity="1" stroke-width="3.2"/>
<circle clip-path="url(#clip152)" cx="2247.6" cy="241.664" r="14" fill="#009af9" fill-rule="evenodd" fill-opacity="1" stroke="#000000" stroke-opacity="1" stroke-width="3.2"/>
<circle clip-path="url(#clip152)" cx="2282.65" cy="241.642" r="14" fill="#009af9" fill-rule="evenodd" fill-opacity="1" stroke="#000000" stroke-opacity="1" stroke-width="3.2"/>
<circle clip-path="url(#clip152)" cx="2317.7" cy="241.632" r="14" fill="#009af9" fill-rule="evenodd" fill-opacity="1" stroke="#000000" stroke-opacity="1" stroke-width="3.2"/>
<circle clip-path="url(#clip152)" cx="2352.76" cy="241.628" r="14" fill="#009af9" fill-rule="evenodd" fill-opacity="1" stroke="#000000" stroke-opacity="1" stroke-width="3.2"/>
</svg>
